<svg width="607" height="562" viewBox="0 0 607 562" fill="none" xmlns="http://www.w3.org/2000/svg">
<circle cx="308.319" cy="281.156" r="280.186" fill="url(#paint0_linear)"/>
<path opacity="0.1" d="M523.041 142.516C499.254 128.776 477.774 127.924 462.622 137.652L378.253 186.392C362.537 193.725 352.16 211.614 352.16 240.322C335.88 242.089 308.584 245.562 290.123 251.466C267.477 258.712 224.729 292.81 213.224 299.793C201.719 306.775 160.085 331.923 153.757 337.89C147.428 343.857 120.946 359.64 111.835 370.27C103.714 373.041 88.7376 379.986 79.4008 387.181C54.5738 393.011 40.224 405.434 35.211 415.149C30.9499 423.385 34.0956 430.832 40.9634 434.417C41.7154 434.818 42.5676 435.157 43.2318 435.37C43.7582 435.533 44.3347 435.696 44.8736 435.796C33.9577 439.494 14.4821 446.552 7.07534 454.274C2.42575 459.126 -0.0682293 466.722 0.257618 473.642C1.14743 492.146 19.4325 493.85 37.3164 488.798C37.2412 492.171 36.0381 494.928 36.9906 499.604C37.4292 501.886 38.5948 504.744 39.635 506.838C45.212 517.97 62.6322 515.099 74.8014 513.181C87.1961 511.238 101.019 509.533 118.101 504.606C118.377 505.634 118.715 506.6 119.104 507.49C124.33 519.687 139.457 518.835 152.629 516.779C184.825 511.777 206.13 501.685 209.602 500.495C232.261 492.71 257.689 483.471 279.308 473.128C288.544 468.716 301.491 462.385 310.426 457.508C311.617 473.743 319.174 477.177 325.114 475.097C325.202 475.51 325.515 475.874 326.004 475.936C330.278 476.488 336.306 474.282 344.891 470.96C380.872 467.424 393.116 469.23 408.619 459.301C416.966 453.948 423.219 447.229 429.498 439.594C436.917 430.569 457.922 418.734 466.657 410.749C469.189 408.442 471.307 405.559 473.099 402.638C472.974 402.864 472.861 403.077 472.723 403.29L579.275 341.801C595.843 333.828 606.22 314.61 606.22 286.567C606.207 233.54 569.011 169.004 523.041 142.516Z" fill="#7974F2"/>
<path d="M532.516 263.213C511.562 277.943 499.443 282.518 488.025 289.488C486.747 307.778 478.927 339.783 465.567 350.576C452.207 361.37 436.416 370.032 429.473 378.482C422.53 386.931 409.772 401.899 391.098 405.296C372.425 408.693 340.943 408.781 327.897 412.517C321.869 416.842 311.805 415.363 310.414 396.396C299.799 402.187 282.629 410.511 268.668 417.042C254.706 423.574 214.916 437.551 209.589 439.382C204.263 441.212 197.019 445.223 178.897 449.912C141.938 459.489 122.789 460.693 118.089 443.481C99.6911 448.784 85.5293 450.288 72.0066 452.507C58.484 454.713 44.4726 455.403 39.6225 445.712C34.7724 436.022 37.1911 432.487 37.2914 427.673C25.7865 430.92 11.0231 431.985 4.2806 423.9C-2.47446 415.814 -0.356454 400.871 7.0503 393.149C14.457 385.426 33.9327 378.369 44.8485 374.671C37.73 373.292 30.2356 365.594 34.3964 355.678C38.5572 345.762 53.12 332.224 79.3758 326.043C88.7251 318.848 103.689 311.903 111.81 309.132C120.934 298.502 147.403 282.719 153.732 276.752C160.061 270.785 201.694 245.625 213.199 238.655C224.704 231.672 267.452 197.574 290.098 190.328C312.745 183.082 348.701 179.51 361.283 178.231C373.879 176.952 387.652 172.841 398.455 164.629C409.258 156.418 419.121 151.003 423.633 147.167C462.785 152.72 526.099 204.945 532.516 263.213Z" fill="#FFBA7B"/>
<path d="M326.042 406.938C339.076 403.203 370.558 403.115 389.244 399.718C407.917 396.32 420.675 381.352 427.618 372.903C434.561 364.454 450.352 355.791 463.712 344.998C477.072 334.204 484.892 302.2 486.171 283.91C496.848 277.391 512.639 270.76 531.777 257.885C532.077 259.653 532.328 261.433 532.529 263.225C511.574 277.955 499.455 282.531 488.038 289.501C486.76 307.791 478.939 339.795 465.579 350.589C452.22 361.382 436.429 370.045 429.486 378.494C422.543 386.943 409.785 401.911 391.111 405.309C372.437 408.706 340.956 408.794 327.909 412.529C322.595 416.34 314.161 415.638 311.266 402.45C315.013 410.16 321.618 410.123 326.042 406.938ZM34.4089 355.691C34.6345 355.14 34.9102 354.588 35.1984 354.011C34.1081 362.874 40.6752 371.963 46.8537 373.154C45.7634 373.53 44.5352 373.893 43.2193 374.257C36.6522 372.113 30.5614 364.842 34.4089 355.691ZM177.042 444.333C195.164 439.632 202.408 435.633 207.734 433.803C213.061 431.973 252.839 417.995 266.813 411.464C280.774 404.933 297.944 396.609 308.559 390.817C308.722 393.111 309.023 395.142 309.424 396.947C298.758 402.701 282.215 410.712 268.68 417.055C254.719 423.586 214.928 437.564 209.602 439.394C204.275 441.224 197.032 445.236 178.909 449.924C144.169 458.925 125.17 460.53 119.104 446.377C128.002 454.588 147.352 452.03 177.042 444.333ZM0.220038 410.662C0.997057 413.319 2.23778 415.789 3.94221 417.845C10.6973 425.93 24.9217 426.181 36.4392 422.934C35.988 424.802 35.3238 426.407 35.0105 428.3C23.8941 431.045 10.597 431.484 4.28059 423.925C1.3605 420.402 0.107244 415.601 0.220038 410.662ZM70.1393 446.928C83.6619 444.722 96.019 443.656 114.417 438.341C114.993 440.447 115.82 442.265 116.886 443.832C99.077 448.859 85.2285 450.351 72.0066 452.519C58.484 454.726 44.4726 455.415 39.6224 445.725C38.1687 442.829 37.3791 440.485 36.9781 438.492C37.2162 439.018 37.4794 439.57 37.7551 440.134C42.6177 449.824 56.6166 449.135 70.1393 446.928Z" fill="#FFCA9B"/>
<path d="M364.254 385.74C365.895 392.672 362.675 402.977 349.365 408.117C338.336 412.379 330.98 415.475 325.992 414.836C325.165 414.723 324.801 413.745 325.315 413.093C328.749 408.618 330.478 401.31 329.864 387.232C329.752 384.587 330.566 381.001 335.554 378.695C340.542 376.375 360.206 368.754 364.254 385.74Z" fill="#FFDCB9"/>
<path d="M310.414 396.408C309.123 397.11 307.719 397.862 306.253 398.627C309.236 363.15 342.497 338.078 375.846 330.97C377.375 324.301 387.05 312.843 394.144 308.493C387.188 315.613 379.518 327.109 377.989 333.176C345.48 339.983 312.858 363.514 310.414 396.408Z" fill="#F49A50"/>
<path d="M113.289 444.81C102.548 408.856 163.093 388.335 175.501 389.175C182.807 378.807 210.629 363.488 226.232 359.276C233.965 349.975 256.787 338.705 267.816 338.893C257.276 341.475 235.344 353.673 227.824 362.486C212.697 366.522 184.887 382.242 177.769 392.045C165.675 391.293 106.772 409.17 118.089 443.493C116.46 443.97 114.855 444.396 113.289 444.81Z" fill="#F49A50"/>
<path d="M158.281 365.657C164.046 360.392 199.588 340.723 209.527 338.228C202.295 341.663 165.688 362.811 159.872 369.33C143.104 373.066 122.25 379.798 91.0311 390.403C76.7189 395.092 43.683 405.459 37.3039 427.685C35.8125 428.112 34.2585 428.488 32.6669 428.826C39.447 404.331 73.31 392.359 88.7752 388.247C117.387 377.529 141.161 369.506 158.281 365.657Z" fill="#F49A50"/>
<path d="M117.563 343.468C131.674 332.386 167.016 312.529 175.325 310.135C167.242 315.024 135.108 334.016 120.996 345.098C109.116 349.473 77.9721 362.46 63.1586 370.458C56.1529 371.737 50.0496 373.68 44.8736 374.683C43.5577 374.432 42.2292 373.956 40.9634 373.292C46.8913 371.361 55.2255 369.443 61.7926 368.252C76.5935 360.267 105.682 347.831 117.563 343.468Z" fill="#F49A50"/>
<path d="M292.429 210.06C292.429 210.06 292.317 210.624 292.091 211.665C289.296 225.83 292.191 242.328 297.718 255.654C309.649 287.984 333.925 286.404 374.53 317.18C345.329 289.777 321.53 287.282 307.694 265.733C298.082 250.84 290.499 229.127 292.254 211.702C292.367 210.624 292.429 210.06 292.429 210.06Z" fill="#F49A50"/>
<path d="M227.323 236.097C260.735 256.092 273.606 284.474 269.42 321.631C281.15 281.603 259.983 249.611 227.323 236.097Z" fill="#F49A50"/>
<path d="M332.734 290.516C331.005 289.564 329.213 287.633 327.42 286.843C309.524 278.946 288.394 280.024 269.507 286.154L270.096 288.222C292.104 283.822 311.329 283.358 332.734 290.516Z" fill="#F49A50"/>
<path d="M368.277 206.964C348.563 227.711 331.97 275.072 355.857 302.977C356.458 303.729 356.96 304.168 359.165 306.299L359.729 305.735C333.724 273.793 353.701 226.984 368.277 206.964Z" fill="#F49A50"/>
<path opacity="0.2" d="M417.129 151.83C463.311 167.939 503.841 239.607 493.339 286.442C491.622 287.407 489.943 288.36 488.289 289.375C488.903 285.69 489.228 281.678 489.228 277.429C489.228 236.737 460.679 187.257 425.463 166.911C418.708 162.987 412.153 160.442 406.062 159.214C410.186 156.356 413.958 153.924 417.129 151.83Z" fill="black"/>
<path d="M377.839 125.504C392.139 118.422 411.301 120.126 432.306 132.261C448.736 141.751 463.975 156.293 476.671 173.379C522.791 235.658 524.771 314.247 479.98 326.82C479.98 326.82 479.015 329.453 478.889 329.792C477.373 333.628 475.342 337.815 472.711 342.202L579.263 280.713C595.831 272.74 606.208 253.522 606.208 225.479C606.208 172.414 569.011 107.879 523.041 81.3901C499.255 67.6381 477.786 66.7982 462.634 76.5136L377.839 125.504Z" fill="#423EAF"/>
<path d="M476.671 173.367C522.791 235.646 524.771 314.234 479.98 326.808C480.819 324.539 481.684 321.856 482.148 320.202C534.759 298.025 503.729 178.118 432.306 136.787C391.211 113.031 357.01 131.158 356.133 178.795C354.904 178.895 353.589 179.033 352.172 179.221C352.16 103.404 424.347 102.927 476.671 173.367Z" fill="#8A86F2"/>
<path d="M356.133 178.795C356.27 178.783 361.923 178.156 362.035 178.131C364.768 163.965 371.523 153.811 381.01 148.383C381.01 148.383 379.844 149.085 414.66 128.977C381.849 119.036 356.885 138.204 356.133 178.795Z" fill="#2B2873"/>
<path d="M381.611 148.069C392.139 142.353 405.874 142.353 421.214 149.06C465.404 168.114 504.431 234.593 498.001 283.897C498.24 283.797 498.478 283.659 498.666 283.571C498.428 283.709 498.189 283.809 498.001 283.947C496.259 297.073 491.246 307.126 483.977 313.645C483.413 315.814 482.799 318.033 482.185 320.202C525.26 301.937 512.075 218.597 467.271 166.384C453.624 150.501 434.373 134.907 414.647 128.99L381.611 148.069Z" fill="#CDCDE6"/>
<path d="M486.208 303.341C489.467 298.765 491.873 293.099 493.339 286.492C492.5 286.918 488.978 288.924 488.05 289.513C487.762 293.575 487.148 298.289 486.208 303.341Z" fill="#B0B0D6"/>
<path d="M366.56 177.529C378.278 175.573 389.043 171.712 398.468 164.642C405.498 159.302 412.153 155.102 417.154 151.843C392.439 143.005 372.751 153.46 366.56 177.529Z" fill="#B0B0D6"/>
<path d="M362.023 178.143C363.539 178.005 365.043 177.767 366.56 177.529C372.751 153.46 392.439 143.005 417.154 151.843C463.311 167.951 503.842 239.62 493.327 286.442C493.327 286.442 491.685 295.631 486.196 303.34C485.632 306.688 484.88 310.135 483.977 313.633C495.019 303.729 498.703 287.884 498.703 272.891C498.703 225.216 462.284 166.773 421.202 149.06C391.437 136.035 367.788 148.32 362.023 178.143Z" fill="#DBE5FF"/>
<path opacity="0.15" d="M114.455 326.432C114.404 323.323 116.535 321.142 119.192 319.562L323.535 200.52C330.253 196.634 341.256 196.684 348.062 200.608C348.062 200.608 445.289 256.719 450.302 259.615C453.699 261.571 457.233 263.626 457.233 263.626L458.123 264.14C460.379 265.444 464.564 267.864 464.577 272.101C464.602 274.746 462.848 277.216 459.639 279.058C459.639 279.058 309.737 371.273 256.549 395.794C244.58 401.31 204.664 406.575 145.999 371.223C115.044 352.532 114.442 327.134 114.455 326.432Z" fill="#7974F2"/>
<path d="M442.47 183.672C440.414 182.456 431.767 175.724 428.308 172.64C424.849 169.556 420.274 165.607 417.304 163.188C414.146 164.04 382.94 178.231 368.502 186.53C354.052 194.816 338.412 205.597 327.646 214.999C321.844 220.064 315.389 226.933 309.311 234.192C305.714 238.504 302.243 242.954 299.122 247.242C298.972 247.455 298.821 247.655 298.671 247.869C298.433 248.195 298.207 248.52 297.982 248.834C297.844 249.022 297.706 249.21 297.581 249.411C296.778 250.551 296.001 251.68 295.249 252.783C286.615 265.607 275.423 284.499 270.372 291.005C265.334 297.499 257.125 302.212 247.889 308.443C238.652 314.686 221.132 323.912 217.034 326.144C212.936 328.362 196.944 338.429 195.415 340.096C196.468 339.896 198.811 340.033 200.29 340.259C202.822 337.764 206.531 336.122 209.527 335.546C212.346 335.007 219.264 335.094 222.962 335.069C226.646 335.032 229.428 334.881 232.348 334.43C235.269 333.979 237.825 333.402 239.467 333.665C240.445 333.816 241.284 334.004 241.71 334.543C264.708 321.606 418.708 226.457 448.523 200.984C447.445 198.865 446.543 196.32 447.232 194.189C447.746 192.61 449.024 191.105 449.901 189.752C448.122 187.295 446.317 185.163 445.314 184.048C444.625 184.411 443.698 184.399 442.47 183.672ZM387.552 229.541C377.037 236.812 329.777 267.763 321.568 273.053C313.359 278.356 283.281 297.248 280.962 298.1C278.656 298.953 276.939 297.135 277.629 295.104C279.684 289.037 286.94 274.332 292.079 266.209C297.205 258.085 307.118 242.867 317.72 231.672C328.323 220.477 345.33 208.079 352.248 203.967C359.166 199.868 372.588 192.171 379.769 188.836C386.95 185.502 400.373 180.199 406.263 179.083C412.153 177.968 412.843 179.171 414.472 181.302C416.101 183.446 421.051 190.88 426.353 202.074C423.959 203.967 398.067 222.27 387.552 229.541Z" fill="#FED645"/>
<path d="M450.165 183.747C448.109 180.751 444.525 176.614 442.921 175.072C445.929 179.434 446.894 181.678 446.317 182.894C446.091 183.383 445.753 183.797 445.302 184.035C446.305 185.151 448.109 187.282 449.889 189.739C450.327 189.062 450.653 188.423 450.741 187.833C450.992 186.041 450.378 184.649 450.165 183.747Z" fill="#FFA81C"/>
<path d="M290.211 341.412C288.57 331.559 279.759 328.638 269.67 333.352C271.926 336.749 281.739 351.454 283.181 352.406C284.81 353.472 286.213 353.861 287.905 353.597C289.635 350.513 290.926 345.637 290.211 341.412Z" fill="#3D201C"/>
<path d="M279.508 368.359C287.173 355.079 287.173 340.723 279.506 336.296C271.84 331.868 259.411 339.045 251.745 352.326C244.08 365.606 244.08 379.961 251.747 384.389C259.413 388.816 271.842 381.64 279.508 368.359Z" fill="#423EAF"/>
<path d="M276.198 366.448C282.036 356.333 282.036 345.4 276.198 342.028C270.36 338.657 260.894 344.123 255.056 354.238C249.217 364.352 249.217 375.285 255.055 378.657C260.894 382.029 270.359 376.562 276.198 366.448Z" fill="#312E82"/>
<path d="M275.123 365.827C280.369 356.737 280.371 346.913 275.126 343.884C269.881 340.855 261.376 345.768 256.13 354.858C250.883 363.947 250.882 373.771 256.127 376.8C261.372 379.829 269.876 374.916 275.123 365.827Z" fill="#6460C7"/>
<path d="M251.987 364.165C252.764 360.392 254.418 356.418 256.787 352.845C259.018 349.385 261.8 346.477 264.82 344.534C267.841 342.704 270.811 341.939 273.305 342.365C275.761 342.603 277.716 344.108 278.844 346.765C279.847 349.511 279.985 352.946 279.233 356.694C278.594 360.354 276.977 364.253 274.658 367.788C272.34 371.236 269.533 374.194 266.45 376.187C263.454 378.143 260.459 378.883 258.065 378.507C255.534 378.105 253.579 376.526 252.476 373.856C251.373 371.211 251.285 367.713 251.987 364.165ZM262.79 358.938C262.464 358.888 262.038 359.239 261.838 359.728C261.637 360.216 261.725 360.655 262.051 360.705C262.377 360.755 262.803 360.404 263.003 359.916C263.204 359.427 263.116 358.988 262.79 358.938ZM278.218 357.145C278.957 353.622 278.869 350.313 277.716 347.731C275.999 349.222 274.145 351.015 272.352 352.971C269.959 355.553 270.122 359.514 272.641 358.95C274.533 358.549 276.451 357.91 278.218 357.145ZM266.249 375.147C269.157 373.317 271.851 370.534 274.094 367.036C273.142 365.833 271.976 364.679 270.648 363.727C268.919 362.46 265.635 365.795 265.673 368.816C265.698 371.135 265.911 373.292 266.249 375.147ZM270.234 357.421C270.209 356.995 269.884 356.844 269.508 357.095C269.132 357.346 268.831 357.885 268.856 358.311C268.881 358.737 269.207 358.888 269.583 358.637C269.959 358.399 270.26 357.847 270.234 357.421ZM266.838 363.112C266.487 363.476 266.312 364.04 266.45 364.366C266.587 364.692 266.989 364.667 267.339 364.303C267.69 363.94 267.866 363.376 267.728 363.05C267.59 362.724 267.189 362.749 266.838 363.112ZM266.838 354.588C266.475 354.688 266.099 355.164 265.998 355.641C265.898 356.117 266.124 356.431 266.487 356.33C266.851 356.23 267.227 355.754 267.327 355.277C267.427 354.801 267.202 354.487 266.838 354.588ZM264.833 352.419C265.084 355.277 268.467 354.4 269.984 351.028C271.124 348.508 272.102 345.988 272.879 343.681C270.51 343.23 267.64 343.957 264.733 345.863C264.607 347.994 264.632 350.263 264.833 352.419ZM263.116 365.281C263.417 364.83 263.454 364.303 263.216 364.103C262.978 363.902 262.539 364.103 262.251 364.554C261.95 365.005 261.913 365.532 262.151 365.732C262.389 365.933 262.828 365.732 263.116 365.281ZM258.73 377.228C259.895 374.959 261.061 372.427 262.063 369.832C263.392 366.459 261.186 364.579 258.704 366.998C256.787 368.854 254.957 370.847 253.366 372.778C254.431 375.46 256.348 376.902 258.73 377.228ZM258.479 362.836C261.048 362.022 262.953 357.496 261.374 355.992C260.183 354.826 258.855 353.886 257.539 353.221C255.233 356.644 253.641 360.467 252.939 364.078C254.619 363.89 256.511 363.488 258.479 362.836Z" fill="#CDCDE6"/>
<path d="M268.342 357.584C268.906 358.938 268.192 361.244 266.738 362.736C265.284 364.228 263.642 364.341 263.078 362.987C262.514 361.633 263.229 359.326 264.682 357.835C266.136 356.343 267.765 356.23 268.342 357.584Z" fill="#DBE5FF"/>
<path d="M246.009 371.674C246.009 359.151 254.794 343.932 265.635 337.664C274.069 332.8 281.251 334.781 284.033 341.801C283.055 338.065 280.486 335.583 278.293 334.016C276.939 333.051 267.728 327.936 267.728 327.936L249.756 342.265L239.166 377.792C239.166 377.792 248.315 383.057 249.28 383.609C250.634 384.373 253.265 385.226 254.343 385.414C249.318 384.223 246.009 379.347 246.009 371.674Z" fill="#1F1C63"/>
<path d="M267.076 319.399C255.083 326.695 246.047 332.086 241.698 334.53C241.986 334.881 242.086 335.395 241.923 336.147C241.51 338.04 240.282 341.45 238.489 343.97C236.697 346.489 234.554 348.332 230.205 350.514C225.844 352.695 213.537 353.597 208.574 353.159C203.712 352.757 193.648 350.727 183.045 346.916C172.343 343.067 158.206 336.599 147.077 327.422C141.312 322.658 132.301 314.773 129.481 307.828C127.99 304.155 128.065 299.103 128.955 296.646C127.839 298.602 126.799 302.313 126.523 303.666C126.398 303.917 125.985 308.317 126.473 311.188C126.912 313.758 128.98 319.825 129.845 321.104C136.274 329.516 151.426 340.134 156.514 342.992C162.893 346.565 184.386 355.967 191.517 357.082C191.943 357.133 195.428 357.471 200.052 357.747C208.537 358.173 214.602 358.161 222.711 355.904C229.128 354.111 242.588 347.104 248.052 343.844C240.821 353.472 238.865 372.878 223.262 378.807C226.396 378.519 236.246 376.1 240.47 374.946C241.372 371.06 242.4 366.447 243.152 363.965C244.493 359.539 249.944 349.536 253.98 344.083C258.015 338.629 261.224 335.42 270.322 331.007C272.929 329.741 275.323 329.102 277.453 328.914C277.428 324.99 273.643 319.951 267.076 319.399Z" fill="#FED645"/>
<path d="M453.749 245.487C453.649 241.776 451.769 238.492 448.385 236.799C444.926 235.069 439.9 234.994 433.596 237.802C436.78 240.435 448.059 249.837 449.851 252.294C450.703 252.256 451.217 252.256 452.42 251.391C453.999 249.197 453.786 246.979 453.749 245.487Z" fill="#3D201C"/>
<path d="M450.616 253.472C450.616 265.996 441.83 281.214 430.99 287.482C420.149 293.738 411.364 288.673 411.364 276.15C411.364 263.626 420.149 248.408 430.99 242.14C441.83 235.884 450.616 240.949 450.616 253.472Z" fill="#423EAF"/>
<path d="M441.551 270.923C447.389 260.808 447.389 249.876 441.551 246.504C435.713 243.132 426.247 248.598 420.409 258.713C414.57 268.828 414.57 279.761 420.408 283.133C426.247 286.504 435.712 281.038 441.551 270.923Z" fill="#312E82"/>
<path d="M426.115 253.171C419.197 260.267 415.788 271.236 418.47 277.667C421.152 284.098 428.947 283.546 435.865 276.451C442.783 269.355 446.192 258.386 443.51 251.955C440.815 245.524 433.033 246.063 426.115 253.171Z" fill="#6460C7"/>
<path d="M417.342 268.641C418.119 264.868 419.773 260.894 422.142 257.321C424.373 253.861 427.155 250.953 430.175 249.009C433.195 247.179 436.166 246.414 438.66 246.841C441.116 247.079 443.071 248.583 444.199 251.241C445.202 253.986 445.339 257.421 444.588 261.169C443.948 264.83 442.332 268.729 440.013 272.264C437.695 275.711 434.887 278.67 431.804 280.663C428.809 282.619 425.814 283.358 423.42 282.982C420.888 282.581 418.933 281.001 417.831 278.331C416.728 275.686 416.627 272.189 417.342 268.641ZM428.145 263.413C427.819 263.363 427.393 263.714 427.192 264.203C426.992 264.692 427.08 265.131 427.405 265.181C427.731 265.231 428.157 264.88 428.358 264.391C428.558 263.902 428.458 263.463 428.145 263.413ZM443.572 261.621C444.312 258.098 444.224 254.789 443.071 252.206C441.354 253.698 439.499 255.491 437.707 257.446C435.313 260.029 435.476 263.99 437.995 263.426C439.888 263.025 441.805 262.385 443.572 261.621ZM431.604 279.635C434.499 277.805 437.206 275.022 439.449 271.524C438.497 270.321 437.331 269.167 436.003 268.215C434.273 266.949 430.99 270.283 431.027 273.304C431.052 275.611 431.265 277.767 431.604 279.635ZM435.589 261.909C435.564 261.483 435.238 261.332 434.862 261.583C434.486 261.834 434.186 262.373 434.211 262.799C434.236 263.225 434.562 263.376 434.937 263.125C435.313 262.874 435.602 262.335 435.589 261.909ZM432.18 267.6C431.829 267.964 431.654 268.528 431.792 268.854C431.93 269.18 432.331 269.155 432.682 268.791C433.033 268.428 433.208 267.864 433.07 267.538C432.932 267.199 432.544 267.224 432.18 267.6ZM432.193 259.063C431.829 259.164 431.453 259.64 431.353 260.116C431.253 260.593 431.478 260.906 431.842 260.806C432.205 260.706 432.581 260.229 432.682 259.753C432.782 259.276 432.556 258.963 432.193 259.063ZM430.188 256.895C430.438 259.753 433.822 258.875 435.339 255.503C436.479 252.983 437.457 250.464 438.234 248.157C435.852 247.706 432.995 248.433 430.087 250.338C429.962 252.482 429.987 254.738 430.188 256.895ZM428.471 269.769C428.771 269.318 428.809 268.791 428.571 268.591C428.333 268.39 427.894 268.591 427.606 269.042C427.305 269.493 427.268 270.02 427.506 270.22C427.744 270.408 428.17 270.208 428.471 269.769ZM424.084 281.716C425.25 279.447 426.415 276.915 427.418 274.32C428.746 270.947 426.541 269.067 424.059 271.487C422.142 273.342 420.312 275.335 418.72 277.266C419.786 279.936 421.703 281.377 424.084 281.716ZM423.834 267.312C426.403 266.497 428.308 261.972 426.729 260.467C425.538 259.302 424.21 258.361 422.894 257.697C420.588 261.119 418.996 264.943 418.294 268.553C419.974 268.365 421.866 267.964 423.834 267.312Z" fill="#CDCDE6"/>
<path d="M433.684 262.059C434.248 263.413 433.534 265.72 432.08 267.212C430.626 268.704 428.984 268.816 428.421 267.462C427.857 266.109 428.571 263.802 430.025 262.31C431.478 260.818 433.12 260.706 433.684 262.059Z" fill="#DBE5FF"/>
<path d="M411.364 276.15C411.364 263.626 420.149 248.408 430.99 242.14C439.424 237.276 446.605 239.256 449.388 246.276C448.41 242.541 445.841 240.059 443.648 238.492C442.294 237.526 433.083 232.412 433.083 232.412L415.111 246.74L404.521 282.267C404.521 282.267 413.67 287.533 414.635 288.084C415.988 288.849 418.62 289.701 419.698 289.889C414.66 288.698 411.364 283.822 411.364 276.15Z" fill="#1F1C63"/>
<path d="M455.115 206.988C454.626 207.615 454.137 207.841 453.624 207.778C452.596 207.653 450.102 203.93 448.874 201.686C448.748 201.46 448.623 201.222 448.498 200.971C424.322 221.631 318.485 288.097 267.064 319.399C273.631 319.963 277.416 325.003 277.466 328.926C282.767 328.425 286.527 330.606 288.344 332.311C290.913 334.706 292.279 338.379 292.141 341.625C292.016 344.872 292.317 345.048 293.257 344.534C295.638 343.23 305.313 337.438 308.722 335.295C312.143 333.151 348.388 311.439 353.338 308.28C358.301 305.12 384.105 289.212 387.953 286.567C391.8 283.91 404.045 276.839 404.935 275.498C405.837 274.157 409.296 265.043 411.602 260.367C413.908 255.691 417.943 249.461 424.097 243.055C430.25 236.636 435.639 234.969 439.161 233.816C441.868 232.926 446.204 232.951 449.588 234.605C452.27 229.29 456.506 217.393 455.115 206.988Z" fill="#FFA81C"/>
<path d="M455.34 248.621C456.143 242.992 454.689 237.088 449.626 234.605C452.283 229.29 456.506 217.393 455.127 206.989C455.591 206.387 456.08 205.434 456.644 203.992C456.769 205.66 456.832 208.744 456.707 210.599C457.609 211.94 459.652 213.783 459.977 217.845C460.654 226.607 460.867 241.3 455.34 248.621Z" fill="#E68D00"/>
<path d="M455.34 206.688C455.265 206.801 455.19 206.901 455.127 206.989C455.052 207.089 454.977 207.164 454.902 207.239C456.406 219.362 450.302 233.603 448.159 236.674C448.235 236.712 448.322 236.749 448.398 236.787C448.473 236.824 448.548 236.875 448.623 236.912C450.866 233.59 457.082 218.961 455.34 206.688Z" fill="#E67300"/>
<path d="M455.341 248.621C454.501 249.724 453.536 250.664 452.433 251.379C454.012 249.197 453.799 246.979 453.761 245.474C453.661 241.764 451.781 238.479 448.397 236.787C444.763 234.969 439.387 234.969 432.606 238.253C418.695 244.985 408.068 268.428 404.596 283.571C401.325 285.752 366.835 307.302 352.097 316.278C337.359 325.254 296.841 348.408 287.93 353.597C289.66 350.514 290.938 345.65 290.236 341.412C287.68 326.081 267.778 327.548 252.689 348.382C249.104 353.347 244.054 363.175 242.262 374.457C241.936 376.037 241.284 378.833 240.645 379.472C240.482 379.635 239.981 379.911 239.166 380.249C240.181 376.839 241.998 367.826 243.177 363.99C244.518 359.565 249.969 349.561 254.005 344.108C258.04 338.655 261.249 335.445 270.347 331.033C279.446 326.607 285.8 329.917 288.356 332.311C290.926 334.706 292.292 338.379 292.154 341.626C292.029 344.872 292.329 345.048 293.269 344.534C295.65 343.23 305.326 337.439 308.734 335.295C312.156 333.151 348.4 311.439 353.35 308.28C358.313 305.121 384.118 289.212 387.965 286.567C391.813 283.91 404.057 276.839 404.947 275.498C405.849 274.157 409.308 265.043 411.614 260.367C413.92 255.691 417.956 249.461 424.109 243.055C430.263 236.636 435.652 234.969 439.174 233.816C441.881 232.926 446.217 232.951 449.601 234.605C454.689 237.088 456.143 242.992 455.341 248.621Z" fill="#E68D00"/>
<path d="M221.37 373.969C220.129 375.774 218.951 377.541 214.026 378.895C209.677 380.086 202.07 380.136 195.453 379.359C188.823 378.594 180.15 375.937 172.418 372.74C164.685 369.531 153.87 364.918 143.142 355.816C132.414 346.715 130.772 344.095 128.441 337.865C127.025 334.104 126.812 330.644 126.736 330.13C126.047 329.227 125.671 328.638 125.37 327.911C125.057 326.369 124.969 322.571 125.258 320.841C126.423 325.228 128.917 332.186 131.875 335.608C134.482 338.429 140.673 344.584 154.446 352.971C168.157 361.32 181.078 365.594 187.795 367.575C190.59 368.403 200.428 370.283 209.815 370.321C213.8 370.333 217.698 369.982 220.28 369.781C221.307 369.844 222.022 369.97 222.398 370.321C222.987 370.872 222.723 371.975 221.37 373.969Z" fill="#1F1C63"/>
<path d="M248.052 343.844C241.347 352.758 238.79 371.16 225.882 377.617C225.092 378.043 224.014 378.519 223.262 378.807C220.079 379.835 215.216 381.415 210.053 381.503C213.499 381.365 215.993 380.826 218.475 379.422C222.347 377.24 224.277 372.878 224.403 371.85C224.528 370.822 224.378 369.731 223.062 369.606C222.611 369.568 221.608 369.631 220.255 369.744C217.673 369.944 213.788 370.295 209.79 370.283C200.403 370.258 190.565 368.377 187.833 367.563C189.387 364.504 190.69 360.48 191.517 357.07C191.856 357.108 196.568 357.584 202.421 357.847C210.116 358.123 215.492 357.897 222.711 355.892C229.128 354.111 242.588 347.091 248.052 343.844Z" fill="#FFA81C"/>
<path d="M191.517 357.082C190.69 360.492 189.387 364.516 187.77 367.55C181.04 365.569 168.132 361.307 154.421 352.946C140.66 344.572 134.457 338.404 131.85 335.583C131.8 335.533 131.75 335.47 131.712 335.408C130.847 331.459 129.907 325.065 129.832 321.092C136.261 329.503 151.413 340.121 156.501 342.979C162.893 346.565 184.386 355.967 191.517 357.082Z" fill="#E68D00"/>
<path d="M125.095 320.289C124.857 319.336 125.458 307.891 126.498 303.729C126.323 304.632 126.022 308.555 126.473 311.175C126.912 313.745 128.98 319.813 129.845 321.091C129.907 325.065 130.86 331.459 131.724 335.408C128.704 331.709 126.273 324.902 125.095 320.289Z" fill="#FFA81C"/>
<path d="M224.415 371.862C224.29 372.89 222.36 377.253 218.487 379.434C214.627 381.603 210.755 381.716 203.198 381.453C195.666 381.202 188.948 379.898 181.454 377.366C173.809 374.783 164.384 370.722 156.652 366.359C148.932 361.997 143.831 357.672 140.56 355.077C137.289 352.482 133.479 349.373 129.757 343.895C125.872 338.178 124.844 333.665 125.358 327.899C125.659 328.626 126.047 329.227 126.724 330.118C126.812 330.632 127.025 334.091 128.428 337.852C130.772 344.083 132.401 346.703 143.129 355.804C153.857 364.905 164.673 369.531 172.405 372.727C180.138 375.937 188.81 378.582 195.44 379.347C202.057 380.111 209.677 380.074 214.013 378.883C218.926 377.529 220.117 375.761 221.357 373.956C222.723 371.963 222.974 370.86 222.372 370.283C221.997 369.932 221.282 369.807 220.254 369.744C221.621 369.631 222.611 369.568 223.062 369.606C224.378 369.756 224.541 370.847 224.415 371.862Z" fill="#FED645"/>
<path d="M240.482 374.959C239.993 377.09 239.53 379.008 239.154 380.237C233.953 382.418 216.244 387.332 196.743 383.145C175.877 378.657 144.044 363.727 130.672 346.439C126.323 340.811 123.904 334.593 125.345 327.899C124.832 333.653 125.872 338.166 129.744 343.895C133.466 349.36 137.276 352.469 140.547 355.077C143.818 357.672 148.919 361.997 156.639 366.359C164.359 370.722 173.784 374.783 181.441 377.366C188.936 379.898 195.653 381.202 203.185 381.453C211.945 381.753 214.891 381.515 223.262 378.808C226.408 378.532 236.246 376.1 240.482 374.959Z" fill="#E68D00"/>
<path d="M309.298 234.192C315.364 226.934 321.819 220.076 327.621 214.999C338.387 205.597 354.027 194.816 368.477 186.53C382.927 178.231 414.121 164.04 417.279 163.188C397.34 148.32 373.453 132.261 349.929 123.862C310.276 138.943 246.56 176.313 232.311 188.924C237.336 196.057 282.015 222.847 309.298 234.192Z" fill="#FFA81C"/>
<path d="M425.513 159.627C423.169 160.492 419.623 161.934 417.292 163.188C419.334 164.855 422.142 167.249 424.824 169.581C425.901 167.162 426.127 163.175 425.538 159.753C425.538 159.715 425.525 159.665 425.513 159.627Z" fill="#FFB82B"/>
<path d="M401.501 137.376C383.103 125.743 365.369 122.12 362.675 121.518C359.98 120.916 357.85 121.267 356.133 121.693C354.428 122.12 351.308 123.323 349.942 123.875C373.465 132.274 397.365 148.333 417.292 163.2C419.623 161.947 423.169 160.505 425.513 159.64C424.698 155.829 415.236 146.051 401.501 137.376Z" fill="#E68D00"/>
<path d="M450.741 187.834C450.49 189.626 447.984 191.808 447.219 194.177C446.455 196.546 447.671 199.429 448.886 201.673C450.102 203.917 452.608 207.641 453.636 207.766C454.162 207.829 454.639 207.603 455.127 206.976C455.591 206.374 456.08 205.409 456.644 203.98C456.844 202.05 453.849 188.937 450.165 183.734C450.378 184.65 450.992 186.041 450.741 187.834Z" fill="#E67300"/>
<path d="M166.866 252.632C156.551 265.557 142.753 282.092 137.778 306.976C137.514 306.7 137.251 306.424 137.001 306.149C137.702 301.661 138.693 296.747 138.091 291.72C137.565 287.294 137.189 279.861 140.848 275.373C146.701 269.731 160.173 258.95 166.866 252.632Z" fill="#FFA81C"/>
<path d="M307.318 233.352C303.646 238.454 291.164 256.067 286.439 263.401C281.138 271.612 269.006 291.193 265.409 293.663C261.825 296.145 255.396 297.261 244.292 295.117C209.815 288.473 186.316 268.277 181.303 260.743C176.177 253.046 175.024 248.947 176.177 245.8C177.33 242.654 183.033 236.31 185.853 233.226C202.546 215.012 226.884 194.854 233.138 189.889C232.812 189.538 232.524 189.212 232.323 188.912C204.789 208.217 170.062 249.335 169.498 249.962C168.833 250.702 167.931 251.604 166.853 252.62C156.539 265.544 142.741 282.079 137.765 306.963C153.945 324.313 179.223 336.448 195.39 340.084C196.931 338.416 212.91 328.362 217.009 326.131C221.107 323.912 238.64 314.673 247.864 308.43C257.1 302.187 265.297 297.486 270.347 290.993C275.385 284.499 286.589 265.595 295.224 252.77C299.498 246.427 304.423 239.983 309.286 234.167C308.647 233.916 307.983 233.64 307.318 233.352Z" fill="#FFB82B"/>
<path d="M241.911 336.147C241.497 338.04 240.269 341.45 238.477 343.97C236.685 346.489 234.542 348.332 230.193 350.513C225.781 352.72 212.835 353.81 206.218 352.895C203.248 352.482 200.265 351.867 197.32 351.178C193.848 347.944 197.295 343.531 200.278 340.259C202.809 337.764 206.519 336.122 209.514 335.545C214.289 334.63 224.478 335.633 232.336 334.43C235.256 333.978 237.813 333.402 239.454 333.665C241.096 333.928 242.324 334.254 241.911 336.147Z" fill="#E8EEFF"/>
<path d="M197.32 351.178C180.376 347.154 160.512 338.529 147.077 327.435C142.59 323.737 137.026 318.848 133.178 313.921C136.361 315.2 136.838 310.286 137.001 306.149C137.251 306.424 137.514 306.7 137.778 306.976C153.957 324.326 179.235 336.461 195.402 340.096C196.455 339.896 198.799 340.034 200.278 340.259C197.282 343.531 193.836 347.944 197.32 351.178Z" fill="#1F1C63"/>
<path d="M138.091 291.72C138.693 296.746 137.702 301.661 137.001 306.149C136.825 310.285 136.362 315.2 133.178 313.921C130.998 311.125 129.857 308.919 129.343 307.49C128.052 304.093 128.052 299.141 128.955 296.659C129.782 294.503 132.464 287.382 133.78 284.524C135.108 281.653 137.878 277.817 140.848 275.373C137.201 279.848 137.565 287.282 138.091 291.72Z" fill="#E8EEFF"/>
<path d="M135.986 312.642C135.823 313.006 135.622 313.307 135.396 313.557C141.099 320.728 149.283 327.447 159.76 333.527C175.075 342.415 187.469 346.364 195.866 348.107C195.866 347.768 195.891 347.43 195.966 347.079C187.67 345.349 175.413 341.425 160.286 332.637C149.771 326.532 141.613 319.813 135.986 312.642ZM136.8 309.132C136.75 309.608 136.687 310.072 136.612 310.511C145.648 321.305 160.361 329.741 168.57 333.916C179.16 339.294 190.038 343.293 197.032 344.459C197.22 344.145 197.42 343.832 197.633 343.518C183.308 341.35 150.586 326.219 136.8 309.132Z" fill="#292585"/>
<path d="M233.138 189.902C226.884 194.854 202.533 215.024 185.853 233.239C183.033 236.323 177.33 242.666 176.177 245.813C175.024 248.959 176.177 253.058 181.303 260.755C186.316 268.277 209.815 288.473 244.292 295.129C255.396 297.273 261.813 296.157 265.409 293.675C268.994 291.193 281.138 271.612 286.439 263.413C291.164 256.092 303.646 238.479 307.406 233.402C281.138 222.119 240.77 198.025 233.138 189.902ZM285.324 262.059C276.964 274.909 266.412 291.845 263.291 293.199C261.374 294.026 252.965 295.38 241.234 292.045C229.504 288.711 213.086 281.716 203.348 275.184C193.61 268.641 182.13 257.609 179.95 252.419C177.769 247.229 178.859 244.597 182.582 239.845C193.786 225.554 217.811 204.243 231.885 192.848C251.887 207.014 279.96 222.796 303.872 234.467C300.137 239.118 291.778 252.118 285.324 262.059Z" fill="#1F1C63"/>
<path d="M231.885 192.835C217.811 204.243 193.786 225.542 182.582 239.833C178.859 244.584 177.769 247.204 179.95 252.407C182.13 257.597 193.61 268.628 203.348 275.172C213.086 281.716 229.504 288.698 241.234 292.033C252.965 295.368 261.361 294.026 263.291 293.186C266.412 291.832 276.964 274.909 285.324 262.047C291.778 252.118 300.137 239.106 303.872 234.443C279.96 222.784 251.887 207.014 231.885 192.835Z" fill="#292585"/>
<path d="M261.888 295.317C261.712 295.368 261.524 295.43 261.336 295.48C261.261 295.844 261.198 296.207 261.136 296.571C260.371 300.683 259.594 304.945 255.722 310.185C253.015 313.833 245.407 319.738 238.051 325.441C233.552 328.926 229.265 332.248 226.157 334.994C226.433 334.981 226.709 334.969 226.972 334.956C230.017 332.311 234.09 329.152 238.352 325.843C245.733 320.114 253.378 314.197 256.123 310.486C260.071 305.146 260.86 300.833 261.637 296.659C261.712 296.22 261.8 295.769 261.888 295.317Z" fill="#E67300"/>
<path d="M201.443 215.626C201.681 214.272 201.318 213.106 200.591 211.878C199.764 210.461 197.583 208.092 196.743 207.64C195.916 207.189 194.375 208.092 193.41 209.057C192.445 210.022 190.653 213.206 190.402 215.764C190.164 218.158 190.928 221.756 192.758 224.414C195.528 221.555 198.435 218.597 201.443 215.626Z" fill="#FFA81C"/>
<path d="M414.472 181.315C412.843 179.171 412.166 177.98 406.263 179.096C400.36 180.212 386.95 185.514 379.769 188.849C372.588 192.184 359.166 199.881 352.248 203.98C345.33 208.079 328.31 220.477 317.72 231.685C307.118 242.879 297.205 258.098 292.079 266.221C286.953 274.345 279.684 289.049 277.629 295.117C276.939 297.148 278.656 298.965 280.962 298.113C283.268 297.261 313.359 278.369 321.568 273.066C329.777 267.763 377.037 236.812 387.552 229.553C398.067 222.283 423.959 203.993 426.353 202.112C421.051 190.892 416.101 183.458 414.472 181.315ZM283.444 294.252C281.489 295.405 280.411 295.017 280.599 293.851C281.313 289.589 288.582 275.059 290.788 271.311C291.239 275.887 291.878 283.809 292.242 288.774C290.362 289.902 285.925 292.81 283.444 294.252ZM298.483 285.176C297.844 279.535 296.177 269.017 295.212 264.015C296.753 261.32 307.782 245.549 316.755 235.282C325.729 225.028 341.394 213.244 348.062 209.019C350.631 217.481 352.849 229.967 354.641 248.821C351.696 250.739 316.429 274.27 298.483 285.176ZM366.347 241.588C364.379 229.528 358.827 210.9 356.433 204.143C369.768 195.506 380.96 189.689 395.322 184.135C396.864 186.868 400.786 201.749 403.957 215.601C401.137 217.394 372.074 237.577 366.347 241.588ZM397.127 183.797C401.826 181.917 404.909 181.152 407.303 180.638C409.697 180.124 411.577 180.124 413.281 182.431C414.986 184.737 420.036 193.55 424.222 201.586C420.976 203.378 409.434 211.84 405.499 214.585C404.132 207.478 398.317 187.382 397.127 183.797Z" fill="#1F1C63"/>
<path d="M356.659 260.555C353.551 257.96 349.24 262.172 349.403 265.983C349.428 266.698 349.553 267.262 349.729 267.688L357.825 262.573C357.599 261.771 357.173 260.969 356.659 260.555Z" fill="#FFA81C"/>
<path d="M349.741 267.688C350.117 268.628 350.756 268.992 351.295 269.205C353.714 270.22 358.125 267.4 358.05 263.789C358.038 263.413 357.962 262.987 357.837 262.573L349.741 267.688Z" fill="#FED645"/>
<path d="M349.102 267.224C348.638 267.538 348.688 268.679 349.465 268.929C350.205 269.167 351.821 268.002 353.05 267.199C360.456 262.323 361.196 261.746 361.221 261.069C361.258 260.43 360.945 259.79 360.456 259.878L349.102 267.224Z" fill="#CDCDE6"/>
<path d="M349.465 268.917C348.688 268.666 348.638 267.525 349.102 267.212L360.444 259.866C360.669 259.815 360.857 259.941 360.995 260.129C360.807 259.765 360.444 259.427 360.005 259.54L348.325 266.798C347.397 267.538 348.012 269.105 349.014 269.105C349.541 269.105 350.18 268.917 350.794 268.591C350.267 268.854 349.779 269.017 349.465 268.917Z" fill="#6460C7"/>
<path d="M424.36 216.428C421.252 213.833 416.941 218.046 417.104 221.856C417.129 222.571 417.254 223.135 417.429 223.561L425.525 218.447C425.287 217.644 424.861 216.855 424.36 216.428Z" fill="#FFA81C"/>
<path d="M417.429 223.574C417.805 224.514 418.445 224.878 418.983 225.091C421.402 226.106 425.814 223.286 425.739 219.675C425.726 219.299 425.651 218.873 425.525 218.459L417.429 223.574Z" fill="#FED645"/>
<path d="M416.79 223.098C416.327 223.411 416.377 224.552 417.154 224.802C417.893 225.041 419.51 223.875 420.738 223.072C428.145 218.196 428.872 217.619 428.909 216.955C428.947 216.316 428.634 215.676 428.145 215.764L416.79 223.098Z" fill="#CDCDE6"/>
<path d="M417.154 224.802C416.377 224.552 416.327 223.411 416.79 223.097L428.132 215.751C428.358 215.701 428.546 215.827 428.684 216.015C428.496 215.651 428.132 215.313 427.694 215.425L416.013 222.684C415.086 223.423 415.687 224.99 416.703 224.99C417.229 224.99 417.868 224.802 418.482 224.476C417.968 224.74 417.48 224.903 417.154 224.802Z" fill="#6460C7"/>
<path d="M293.269 344.534C295.651 343.23 305.326 337.438 308.735 335.295C312.156 333.151 348.4 311.439 353.35 308.28C358.313 305.121 384.118 289.212 387.965 286.567C391.45 284.16 401.814 278.143 404.408 276.024C401.338 276.087 398.242 276.388 395.523 277.554C392.377 278.895 374.117 290.704 367.575 294.929C347.31 308.041 302.28 335.846 297.38 338.918C294.56 340.685 293.269 343.042 292.68 344.759C292.843 344.747 293.044 344.659 293.269 344.534Z" fill="#FED645"/>
<path d="M432.08 213.495C431.742 212.041 427.644 203.892 426.277 201.912C426.303 201.974 426.34 202.024 426.365 202.087C426.277 202.162 426.14 202.263 425.977 202.375C427.405 204.544 431.278 212.254 431.579 213.595C431.892 214.937 430.338 220.503 428.533 223.712C425.801 228.576 422.217 234.881 420.675 237.288C419.66 238.88 417.467 242.729 415.525 246.139C414.133 248.583 412.817 250.902 412.166 251.955C410.587 254.55 402.065 275.548 401.626 277.065C401.15 278.695 398.23 282.443 396.337 283.86C395.347 284.599 386.888 289.94 378.716 295.092C372.212 299.204 365.494 303.441 362.637 305.296C362.675 304.87 362.725 304.519 362.775 304.193C362.863 303.591 362.938 303.065 362.913 302.363C362.9 301.786 362.737 301.047 362.599 300.345C362.437 299.555 362.261 298.74 362.311 298.226C362.424 296.997 363.151 288.197 363.301 283.596C363.439 279.648 363.765 263.426 363.239 258.863C362.838 255.44 361.559 250.1 360.782 247.355C360.632 247.455 360.481 247.555 360.331 247.656C361.096 250.414 362.336 255.654 362.725 258.925C363.214 263.175 362.975 278.281 362.787 283.584C362.625 288.41 361.86 297.486 361.797 298.188C361.747 298.778 361.91 299.605 362.098 300.47C362.249 301.147 362.386 301.861 362.411 302.388C362.424 303.052 362.361 303.554 362.274 304.143C362.211 304.569 362.148 305.058 362.098 305.672C359.04 307.64 302.042 341.814 295.387 345.75C295.425 344.76 295.375 343.268 295.337 342.14C295.312 341.576 295.3 341.099 295.3 340.823C295.3 339.946 293.57 310.323 293.244 306.236C292.956 302.651 292.029 294.929 291.089 292.171C290.938 292.259 290.788 292.359 290.637 292.447C291.515 295.142 292.442 302.551 292.73 306.287C293.056 310.361 294.786 339.946 294.786 340.823C294.786 341.099 294.798 341.588 294.823 342.152C294.873 343.468 294.936 345.286 294.848 346.189L294.798 346.69L295.237 346.439C299.373 344.02 360.92 307.114 362.499 306.036C365.043 304.369 372.137 299.881 379.005 295.543C387.188 290.378 395.648 285.038 396.663 284.286C398.493 282.932 401.588 279.121 402.14 277.228C402.578 275.724 411.05 254.814 412.629 252.244C413.281 251.178 414.597 248.859 415.988 246.415C417.918 243.017 420.111 239.169 421.127 237.589C422.681 235.17 426.265 228.852 428.997 223.988C430.727 220.854 432.431 215.074 432.08 213.495Z" fill="#E67300"/>
<path d="M442.921 175.072C439.023 170.145 430.376 162.561 425.425 159.276C425.463 159.402 425.5 159.515 425.525 159.627C425.538 159.665 425.551 159.715 425.551 159.753C430.087 163.05 437.557 169.97 439.199 171.95C440.565 173.605 443.748 177.303 443.209 178.105C442.808 178.707 441.291 178.619 439.236 177.466C437.181 176.313 430.564 171.223 428.897 169.731C426.892 167.926 426.177 166.811 425.751 165.645C425.601 167.136 425.3 168.515 424.824 169.581C426.027 170.634 427.217 171.675 428.295 172.64C431.754 175.724 440.414 182.455 442.457 183.671C444.512 184.887 445.728 184.123 446.305 182.907C446.894 181.678 445.929 179.434 442.921 175.072Z" fill="#1F1C63"/>
<path d="M439.199 171.95C437.544 169.957 430.087 163.037 425.551 159.778C425.876 161.683 425.952 163.764 425.764 165.645C426.19 166.811 426.892 167.914 428.909 169.731C430.576 171.223 437.193 176.313 439.249 177.466C441.304 178.619 442.82 178.707 443.221 178.106C443.748 177.303 440.565 173.605 439.199 171.95Z" fill="#403A9E"/>
<path d="M231.885 192.835C221.357 201.372 205.253 215.45 193.121 227.986C194.086 228.325 195.252 228.814 196.593 229.428C209.05 220.954 227.812 208.192 241.648 199.467C238.226 197.236 234.955 195.017 231.885 192.835Z" fill="#403A9E"/>
<path d="M254.318 207.452C252.664 210.035 251.298 214.134 250.283 216.391C249.167 218.873 247.425 226.382 251.987 230.318C253.24 231.396 272.277 242.29 291.226 252.971C296.214 245.324 301.215 237.777 303.859 234.468C287.993 226.708 270.285 217.143 254.318 207.452Z" fill="#2D288F"/>
<path d="M348.062 209.019C341.394 213.256 325.729 225.028 316.755 235.282C310.777 242.114 303.897 251.379 299.51 257.609C308.283 262.536 316.455 267.074 322.132 270.183C337.534 260.191 352.749 250.05 354.641 248.809C352.849 229.967 350.618 217.481 348.062 209.019Z" fill="#2D288F"/>
<path d="M295.212 264.015C296.177 269.017 297.844 279.535 298.483 285.176C304.912 281.277 313.547 275.761 322.132 270.195C316.455 267.086 308.296 262.548 299.511 257.622C297.305 260.743 295.726 263.112 295.212 264.015Z" fill="#403A9E"/>
<path d="M252.551 230.694C248.541 231.634 236.447 234.505 234.191 235.044C231.785 235.621 224.503 236.573 223.5 244.032C229.203 247.342 234.228 250.338 237.136 252.043C245.846 257.17 256.486 263.701 258.404 264.09C260.321 264.479 263.204 263.288 265.259 263.325C269.295 263.388 272.591 264.416 279.082 271.699C281.2 268.428 283.331 265.118 285.324 262.047C287.191 259.176 289.209 256.054 291.239 252.958C273.656 243.055 256.023 232.976 252.551 230.694Z" fill="#403A9E"/>
<path d="M179.95 252.407C182.13 257.596 193.61 268.628 203.348 275.172C213.086 281.716 229.504 288.698 241.234 292.033C252.965 295.368 261.361 294.026 263.291 293.186C265.673 292.158 272.34 282.117 279.082 271.712C272.591 264.429 269.294 263.401 265.259 263.338C263.204 263.3 260.321 264.491 258.404 264.103C256.486 263.714 245.846 257.183 237.136 252.056C228.614 247.041 201.969 231.095 193.109 227.986C189.036 232.198 185.401 236.248 182.582 239.833C178.859 244.584 177.769 247.217 179.95 252.407Z" fill="#544FA8"/>
<path d="M290.788 271.323C288.57 275.072 281.301 289.601 280.599 293.863C280.411 295.017 281.476 295.405 283.444 294.264C285.925 292.81 290.362 289.902 292.242 288.799C291.878 283.822 291.239 275.899 290.788 271.323Z" fill="#544FA8"/>
<path d="M276.263 262.486C277.679 263.388 280.586 265.657 282.04 267.136C282.454 266.497 282.867 265.858 283.268 265.231C281.865 263.589 278.681 260.956 276.175 259.627C273.443 258.173 270.147 257.283 268.016 258.512C266.211 259.565 266.487 262.109 266.888 263.438C270.259 263.802 273.48 265.431 279.082 271.712C279.847 270.534 280.611 269.343 281.376 268.164C281.2 267.951 280.975 267.701 280.699 267.387C279.634 266.196 276.601 265.682 275.824 265.682C275.059 265.682 273.393 264.955 272.49 264.567C271.588 264.178 269.934 263.451 269.633 263.025C269.332 262.598 268.53 261.332 269.332 260.505C270.573 259.239 274.596 261.407 276.263 262.486Z" fill="#544FA8"/>
<path d="M241.635 199.467C227.799 208.192 209.038 220.941 196.581 229.428C203.348 232.524 214.302 238.705 223.488 244.045C224.491 236.586 231.772 235.633 234.178 235.057C236.434 234.518 248.528 231.634 252.538 230.707C252.263 230.531 252.075 230.393 251.987 230.318C247.425 226.382 249.167 218.873 250.283 216.39C251.298 214.134 252.664 210.047 254.318 207.452C249.368 204.444 241.635 199.467 241.635 199.467Z" fill="#262278"/>
<path d="M415.913 200.232C415.186 198.803 412.241 196.471 411.477 196.045C411.915 195.781 414.848 192.033 410.925 188.949C408.569 187.106 404.02 185.138 399.082 183.032C398.468 183.258 397.816 183.509 397.127 183.784C398.317 187.37 404.132 207.465 405.498 214.56C407.604 213.094 411.89 209.985 415.913 207.139C416.652 204.456 416.878 202.112 415.913 200.232ZM356.433 204.143C358.827 210.9 364.379 229.541 366.347 241.588C372.074 237.564 401.137 217.393 403.957 215.601C400.799 201.749 396.864 186.868 395.322 184.135C380.972 189.689 369.768 195.506 356.433 204.143Z" fill="#2D288F"/>
<path d="M415.9 207.164C419.397 204.694 422.706 202.413 424.222 201.573C420.036 193.537 414.986 184.725 413.281 182.418C412.053 180.751 410.725 180.287 409.183 180.349L407.128 180.65C405.11 181.089 402.603 181.716 399.069 183.032C404.02 185.126 408.556 187.094 410.913 188.949C414.848 192.021 411.903 195.769 411.464 196.045C412.228 196.471 415.174 198.802 415.9 200.232C416.853 202.112 416.64 204.456 415.9 207.151C415.913 207.164 415.9 207.164 415.9 207.164Z" fill="#403A9E"/>
<path d="M297.718 285.151C299.348 279.171 301.378 275.385 304.386 272.753C304.724 272.452 306.566 272.539 309.562 273.605C312.557 274.671 317.47 277.065 318.961 278.82C320.452 280.575 320.628 281.941 320.628 282.969C314.938 287.545 304.122 285.928 297.718 285.151Z" fill="#FFA81C"/>
<path d="M320.628 282.969C314.938 287.545 304.135 285.915 297.718 285.151C298.094 283.784 298.483 282.531 298.909 281.377C298.232 281.202 297.405 281.026 296.315 281.264C294.648 281.628 293.683 282.907 293.457 283.696C293.257 284.361 293.244 285.489 294.222 286.266C294.911 286.304 297.982 286.993 301.278 287.332C304.574 287.67 311.066 287.934 313.585 287.67C316.104 287.42 317.821 286.517 319.35 285.527C320.879 284.536 320.628 283.91 320.628 282.969Z" fill="#292585"/>
<path opacity="0.15" d="M58.1582 353.159L110.068 383.145L97.7235 390.278L45.8136 360.292C44.8486 359.727 44.8486 358.825 45.8136 358.261L54.6616 353.159C55.6141 352.607 57.1932 352.607 58.1582 353.159Z" fill="#7974F2"/>
<path opacity="0.15" d="M182.757 414.936L159.772 428.212C153.143 432.035 142.402 432.035 135.772 428.212L88.4494 400.883C81.8197 397.06 81.8197 390.854 88.4494 387.018L111.434 373.743C118.064 369.919 128.804 369.919 135.434 373.743L182.757 401.071C189.387 404.907 189.387 411.112 182.757 414.936Z" fill="#7974F2"/>
<path d="M97.0969 374.909L46.8162 345.863C46.3525 345.587 46.1144 345.236 46.1144 344.885V348.633C46.1144 348.984 46.3525 349.348 46.8162 349.611L97.0969 378.657L109.065 371.749L105.82 369.869L97.0969 374.909Z" fill="#9A9AE6"/>
<path d="M58.7723 338.955L109.053 368.001L97.0843 374.909L46.8037 345.863C45.8637 345.323 45.8637 344.446 46.8037 343.894L55.3634 338.955C56.3033 338.404 57.8323 338.404 58.7723 338.955Z" fill="#B8B8E6"/>
<path d="M64.5372 351.265L67.5451 350.576L72.1946 353.259L71.004 354.989L75.2651 357.446L74.1873 359L84.5768 365.005L87.2713 364.391L97.1595 370.107L100.756 368.026L90.2165 361.934L91.4572 360.128L86.9705 357.533L83.8499 358.248L80.1403 356.104L81.381 354.299L70.9915 348.294L67.8834 349.047L62.0683 345.687L61.2412 342.54L53.6715 340.271C53.5336 340.234 53.3832 340.196 53.2454 340.184L48.9467 342.666C48.9843 342.753 49.0344 342.829 49.0971 342.916L53.0198 347.292L58.4715 347.768L64.5372 351.265Z" fill="#6964D4"/>
<path d="M84.5768 365.018L87.2713 364.403L97.1595 370.12L99.6661 368.665L90.2165 363.2V361.946L90.8431 361.044L86.9831 358.812L83.8625 359.527L80.1528 357.383V356.129L80.7795 355.227L71.0166 349.586L67.8835 350.3L62.0683 346.941L61.2412 343.794L53.6715 341.525C53.5337 341.487 53.3833 341.45 53.2454 341.437L49.6486 343.518L53.0324 347.292L58.484 347.768L64.5498 351.278L67.5576 350.589L72.2072 353.271V354.525L71.6307 355.365L75.2651 357.471V358.724L74.814 359.389L84.5768 365.018Z" fill="#544FA8"/>
<path d="M179.185 401.159L158.055 413.356C151.964 416.879 142.089 416.879 135.998 413.356L92.51 388.234C89.4646 386.479 87.9481 384.173 87.9481 381.866V393.048C87.9481 395.355 89.4646 397.661 92.51 399.416L135.998 424.539C142.089 428.061 151.964 428.061 158.055 424.539L179.185 412.341C182.231 410.586 183.747 408.279 183.747 405.973V394.791C183.747 397.097 182.231 399.404 179.185 401.159Z" fill="#1F1C63"/>
<path d="M179.185 401.159L158.055 413.357C151.964 416.879 142.089 416.879 135.998 413.357L92.51 388.234C86.4191 384.712 86.4191 379.008 92.51 375.498L113.64 363.3C119.731 359.778 129.606 359.778 135.697 363.3L179.185 388.422C185.276 391.945 185.276 397.649 179.185 401.159Z" fill="#403A9E"/>
<path d="M105.068 381.49C102.361 383.057 97.9741 383.057 95.2671 381.49C93.9136 380.713 93.2368 379.685 93.2368 378.657V381.164C93.2368 382.192 93.9136 383.207 95.2671 383.997C97.9741 385.564 102.361 385.564 105.068 383.997C106.421 383.22 107.098 382.192 107.098 381.164V378.657C107.098 379.685 106.421 380.713 105.068 381.49Z" fill="#AFAFE6"/>
<path d="M105.068 375.824C107.775 377.391 107.775 379.923 105.068 381.49C102.361 383.057 97.9741 383.057 95.2671 381.49C92.5601 379.923 92.5601 377.391 95.2671 375.824C97.9741 374.269 102.361 374.269 105.068 375.824Z" fill="#CDCDE6"/>
<path d="M125.671 374.332L111.585 382.468C106.045 385.664 106.045 390.842 111.585 394.039L113.59 395.192C114.856 395.919 116.923 395.919 118.189 395.192L147.703 378.143C148.969 377.403 148.969 376.225 147.703 375.485L145.698 374.332C140.171 371.135 131.198 371.135 125.671 374.332Z" fill="#544FA8"/>
<path d="M138.542 409.596C144.082 412.793 153.042 412.793 158.582 409.596L172.668 401.46C178.208 398.263 178.208 393.086 172.668 389.889L170.663 388.736C169.397 387.996 167.329 387.996 166.064 388.736L136.549 405.785C135.284 406.524 135.284 407.703 136.549 408.442L138.542 409.596Z" fill="#544FA8"/>
<path d="M133.855 404.23L163.369 387.181C164.635 386.442 164.635 385.263 163.369 384.524L154.997 379.685C153.732 378.945 151.664 378.945 150.398 379.685L120.884 396.734C119.618 397.473 119.618 398.652 120.884 399.391L129.255 404.23C130.521 404.97 132.577 404.97 133.855 404.23Z" fill="#544FA8"/>
<path d="M149.709 393.951L146.563 395.768C144.984 396.684 142.402 396.684 140.823 395.768L138.718 394.552C138.003 394.139 138.003 393.462 138.718 393.048L145.009 389.425C145.723 389.012 146.901 389.012 147.616 389.425L149.721 390.641C151.288 391.556 151.288 393.048 149.709 393.951ZM139.52 393.512C139.244 393.675 139.244 393.926 139.52 394.089L141.625 395.305C142.766 395.969 144.62 395.969 145.773 395.305L148.919 393.487C150.06 392.823 150.06 391.757 148.919 391.093L146.814 389.877C146.538 389.714 146.087 389.714 145.811 389.877L139.52 393.512Z" fill="#CDCDE6"/>
<path d="M145.824 392.045C145.122 391.632 143.969 391.632 143.267 392.045C142.565 392.447 142.565 393.111 143.267 393.525C143.731 393.788 144.382 393.876 144.984 393.8L145.686 394.214C145.899 394.339 146.225 394.339 146.438 394.214L147.002 393.888C147.215 393.763 147.215 393.575 147.002 393.449L146.3 393.036C146.438 392.697 146.287 392.321 145.824 392.045Z" fill="#CDCDE6"/>
<path d="M139.958 393.261C139.733 393.387 139.382 393.387 139.156 393.261C136.762 391.882 133.517 391.506 131.912 392.434C130.308 393.362 130.947 395.242 133.341 396.621C133.567 396.746 133.567 396.959 133.341 397.085C133.116 397.21 132.765 397.21 132.539 397.085C129.707 395.442 129.067 393.148 131.11 391.97C133.153 390.792 137.126 391.168 139.958 392.81C140.171 392.923 140.171 393.123 139.958 393.261Z" fill="#CDCDE6"/>
<path d="M165.688 401.222L161.063 403.892L160.7 403.779C158.983 403.278 156.927 403.453 155.574 404.23L155.173 404.456L154.258 403.929C153.293 403.378 153.305 402.475 154.258 401.911L160.035 398.576C160.775 398.15 161.915 398.037 162.855 398.301L165.011 398.915C165.738 399.116 166.227 399.504 166.352 399.955C166.502 400.432 166.252 400.883 165.688 401.222ZM160.838 403.089L164.886 400.758C165.199 400.582 165.324 400.332 165.262 400.093C165.186 399.843 164.923 399.642 164.535 399.529L162.379 398.915C161.865 398.777 161.251 398.827 160.85 399.065L155.073 402.4C154.559 402.701 154.559 403.19 155.073 403.491L155.198 403.566C156.777 402.801 158.933 402.626 160.838 403.089Z" fill="#CDCDE6"/>
<path d="M160.048 404.481C160.95 405.008 160.95 405.848 160.048 406.374C159.146 406.901 157.679 406.901 156.777 406.374C155.875 405.848 155.875 405.008 156.777 404.481C157.679 403.955 159.146 403.955 160.048 404.481Z" fill="#CDCDE6"/>
<path d="M155.198 402.312C155.073 402.388 154.872 402.425 154.684 402.4C154.383 402.363 154.183 402.187 154.245 402.012L156.05 396.985C156.1 396.847 156.313 396.734 156.564 396.721L158.97 396.634C159.283 396.621 159.547 396.759 159.572 396.934C159.597 397.11 159.359 397.273 159.045 397.285L157.078 397.361L155.361 402.149C155.336 402.212 155.273 402.262 155.198 402.312Z" fill="#CDCDE6"/>
<path d="M133.379 384.511L130.233 386.329C128.654 387.244 126.072 387.244 124.493 386.329L122.388 385.113C121.673 384.699 121.673 384.022 122.388 383.608L128.679 379.986C129.393 379.572 130.571 379.572 131.286 379.986L133.391 381.202C134.958 382.104 134.958 383.596 133.379 384.511ZM123.19 384.06C122.914 384.223 122.914 384.473 123.19 384.636L125.295 385.852C126.436 386.517 128.29 386.517 129.431 385.852L132.577 384.035C133.717 383.37 133.717 382.305 132.577 381.64L130.471 380.424C130.195 380.261 129.744 380.261 129.468 380.424L123.19 384.06Z" fill="#CDCDE6"/>
<path d="M129.644 379.885L128.842 380.349C126.448 378.97 123.202 378.594 121.598 379.522C119.994 380.449 120.633 382.33 123.027 383.709L122.225 384.173C119.392 382.53 118.753 380.236 120.796 379.058C122.839 377.867 126.812 378.243 129.644 379.885Z" fill="#CDCDE6"/>
<path d="M129.569 382.643C128.867 382.23 127.714 382.23 127.012 382.643C126.31 383.044 126.31 383.709 127.012 384.123C127.476 384.386 128.127 384.474 128.729 384.398L129.431 384.812C129.644 384.937 129.97 384.937 130.183 384.812L130.747 384.486C130.96 384.361 130.96 384.173 130.747 384.047L130.045 383.634C130.183 383.295 130.032 382.919 129.569 382.643Z" fill="#CDCDE6"/>
<defs>
<linearGradient id="paint0_linear" x1="588.506" y1="361.779" x2="10.3171" y2="110.922" gradientUnits="userSpaceOnUse">
<stop offset="0.444945" stop-color="#FEF0E2"/>
<stop offset="0.823782" stop-color="white"/>
</linearGradient>
</defs>
</svg>
