<svg width="907" height="469" viewBox="0 0 907 469" fill="none" xmlns="http://www.w3.org/2000/svg">
<path d="M905.034 468.499H1.67317C0.749669 468.499 0 467.748 0 466.824C0 465.9 0.749669 465.15 1.67317 465.15H905.034C905.958 465.15 906.707 465.9 906.707 466.824C906.702 467.748 905.958 468.499 905.034 468.499Z" fill="#C8C2ED"/>
<path d="M316.164 85.0835H296.314C296.314 85.0835 300.378 87.568 303.203 93.7985C307.978 92.1566 312.508 89.5307 316.447 86.4209L316.164 85.0835Z" fill="#ED7E94"/>
<path d="M306.663 71.6602C302.415 64.4295 291.806 67.1369 284.13 63.4346L281.245 73.7099L285.336 74.8461L286.699 88.9489C286.699 88.9489 292.419 89.6121 300.709 88.6118C306.305 84.1483 309.944 78.2386 306.663 71.6602Z" fill="#FF96A9"/>
<path d="M320.331 63.2447L285.33 59.1509L284.124 63.435C291.8 67.1428 302.404 64.4299 306.658 71.6606C309.944 78.2335 306.305 84.1486 300.704 88.6067C305.256 88.0576 310.58 87.0138 316.159 85.0783L320.331 63.2447Z" fill="#ED7E94"/>
<path d="M310.71 66.9633C310.71 66.9633 283.136 65.4464 261.922 50.2836C261.922 50.2836 303.436 49.9792 330.712 60.5969C330.712 60.5969 326.47 78.9457 316.164 85.0836L312.606 72.3456C312.606 72.3456 319.88 70.981 316.925 65.5226C313.97 60.0642 310.71 66.9633 310.71 66.9633Z" fill="#3F327A"/>
<path d="M291.659 118.97C293.528 116.165 297.955 115.067 302.605 114.072L302.844 113.365L305.783 104.645L281.24 117.002L244.875 165.372L186.352 195.024L190.611 201.194C235.026 193.007 265.274 157.538 291.659 118.97Z" fill="#8B77E8"/>
<path d="M291.659 118.97C265.274 157.532 235.026 193.007 190.606 201.189L191.122 201.934L194.984 207.528L251.693 185.156L286.922 148.991L299.194 124.2L302.605 114.072C297.961 115.072 293.528 116.165 291.659 118.97Z" fill="#654CC9"/>
<path d="M294.424 221.783L240.834 457.571C240.834 457.571 330.968 341.912 320.331 251.163C309.695 160.414 294.424 221.783 294.424 221.783Z" fill="#3F327A"/>
<path d="M242.23 455.739C253.573 440.663 330.185 335.224 320.331 251.163C316.833 221.337 312.84 207.947 309.048 203.402C304.159 229.297 274.753 380.67 242.23 455.739Z" fill="#322666"/>
<path d="M344.88 213.59C344.88 213.59 357.766 223.866 348.731 242.29C348.731 242.29 368.331 357.613 365.604 457.566C365.604 457.566 316.197 333.648 305.789 247.368C305.789 247.368 295.516 238.354 294.424 221.778L344.88 213.59Z" fill="#3F327A"/>
<path d="M246.456 449.987L257.679 465.155H164.954L246.456 449.987Z" fill="#3F327A"/>
<path d="M344.88 213.59L340.719 214.264C341.789 223.104 341.376 233.788 336.166 243.052C336.166 243.052 364.839 371.357 363.915 453.254C365.002 456.054 365.605 457.566 365.605 457.566C368.332 357.613 348.732 242.29 348.732 242.29C357.766 223.871 344.88 213.59 344.88 213.59Z" fill="#322666"/>
<path d="M294.5 217.232C294.571 220.157 294.424 221.783 294.424 221.783C294.424 221.783 318.745 237.022 344.88 213.595C344.88 213.595 344.304 211.807 343.544 208.898C329.865 220.532 310.395 226.371 294.5 217.232Z" fill="#322666"/>
<path d="M341.697 170.831C347.227 155.994 350.388 135.558 347.824 122.107C347.064 138.863 339.784 154.782 335.754 171.287C332.57 183.118 332.119 195.399 335.754 207.224C326.986 215.743 314.844 220.299 302.665 220.576C316.697 224.268 332.136 218.603 343.544 208.893C341.305 200.368 337.459 182.188 341.697 170.831Z" fill="#654CC9"/>
<path d="M335.754 171.287C339.784 154.781 347.064 138.863 347.824 122.107C347.754 121.743 347.683 121.379 347.607 121.02L320.337 104.645H305.789L281.245 121.705C281.245 121.705 275.818 137.357 278.409 156.266C296.717 147.561 313.791 136.28 330.299 124.434C316.164 141.907 300.894 158.995 282.739 172.576C283.125 173.511 283.532 174.451 283.972 175.386C292.767 194.132 294.326 209.844 294.5 217.238C297.135 218.755 299.873 219.847 302.665 220.581C314.844 220.304 326.986 215.748 335.754 207.229C332.114 195.399 332.57 183.112 335.754 171.287Z" fill="#8B77E8"/>
<path d="M298.368 125.228L293.674 128.751L295.071 135.574L301.008 129.344L298.368 125.228Z" fill="#E5649A"/>
<path d="M330.299 124.429C313.796 136.281 296.722 147.562 278.409 156.26C279.132 161.534 280.479 167.058 282.739 172.565C300.889 158.99 316.164 141.902 330.299 124.429Z" fill="#654CC9"/>
<path d="M297.042 129.969C273.998 170.678 281.24 205.179 281.24 205.179L297.341 228.9L297.379 228.845C287.389 196.633 289.019 162.279 297.042 129.969Z" fill="#E5649A"/>
<path d="M297.341 129.436C297.238 129.615 297.146 129.789 297.042 129.969C289.019 162.279 287.389 196.633 297.379 228.851L312.764 208.822C294.098 184.488 297.341 129.436 297.341 129.436Z" fill="#DB4A87"/>
<path d="M221.663 115.79C219.392 108.059 223.934 100.779 229.388 95.3209C222.842 91.2271 211.151 90.8139 207.55 83.8115C203.274 90.3627 226.242 95.3209 226.242 95.3209C208.647 117.193 225.009 123.956 231.669 125.712C227.807 122.999 223.287 120.661 221.663 115.79Z" fill="#ED7E94"/>
<path d="M246.244 118.97C246.244 118.97 246.016 95.7719 243.517 93.2656C241.018 90.7647 212.156 77.1187 207.609 83.7134C207.588 83.746 207.571 83.7732 207.555 83.8058C211.157 90.8082 222.847 91.2214 229.393 95.3152C223.939 100.774 219.392 108.053 221.668 115.784C223.293 120.661 227.812 122.993 231.675 125.706C233.19 126.103 234.201 126.244 234.201 126.244C234.679 129.631 235.83 133.285 237.455 137.069C243.159 134.133 247.945 129.039 249.71 122.988L246.244 118.97Z" fill="#FF96A9"/>
<path d="M280.3 185.841C276.019 183.634 271.592 181.612 267.208 179.524C274.275 187.429 279.653 192.664 279.653 192.664C328.463 171.135 342.62 138.526 346.368 126.082C330.957 151.9 306.902 172.532 280.3 185.841Z" fill="#654CC9"/>
<path d="M320.331 104.645L322.379 129.436L284.195 163.099L253.757 127.718C252.03 134.649 246.961 140.179 240.845 144C247.809 156.722 258.723 170.042 267.202 179.529C271.586 181.617 276.014 183.639 280.294 185.846C306.897 172.532 330.951 151.905 346.363 126.092C347.325 122.895 347.602 121.025 347.602 121.025L320.331 104.645Z" fill="#8B77E8"/>
<path d="M253.763 127.712L249.705 122.993C247.939 129.044 243.153 134.138 237.449 137.074C238.422 139.341 239.573 141.657 240.85 143.995C246.967 140.173 252.03 134.649 253.763 127.712Z" fill="#654CC9"/>
<path d="M365.86 449.987L381.315 465.155H291.012L365.86 449.987Z" fill="#322666"/>
<path d="M299.194 124.206L320.331 104.645L316.452 86.4209C312.508 89.5307 307.983 92.1511 303.208 93.7984C304.485 96.6092 305.506 100.187 305.789 104.645L299.194 124.206Z" fill="#FF96A9"/>
<path d="M287.27 79.7017H299.199C299.199 79.7017 296.51 86.4214 292.267 86.4214C288.025 86.4214 287.27 79.7017 287.27 79.7017Z" fill="white"/>
<path d="M302.23 109.505L289.731 131.709L298.368 125.228L304.354 134.552L322.113 109.989L304.354 131.372L299.194 124.206L294.229 127.049L302.23 109.505Z" fill="#654CC9"/>
<path d="M241.431 140.429C242.184 140.429 242.795 139.818 242.795 139.064C242.795 138.311 242.184 137.7 241.431 137.7C240.678 137.7 240.068 138.311 240.068 139.064C240.068 139.818 240.678 140.429 241.431 140.429Z" fill="#8B77E8"/>
<path d="M162.118 185.389C139.389 174.929 129.394 148.54 121.664 126.255C120.3 132.17 120.3 138.536 118.48 144.451C117.85 146.343 116.932 148.04 116.079 149.763C123.483 162.235 139.971 185.096 163.786 190.397C163.786 190.397 182.034 171.689 190.019 145.147C188.802 145.077 187.575 144.919 186.352 144.685C182.609 160.332 174.814 174.962 162.118 185.389Z" fill="#654CC9"/>
<path d="M111.663 86.4481L89.3898 85.0835L88.8737 86.5568C92.5515 90.5691 97.571 93.2059 102.993 94.6683C106.556 89.2534 111.663 86.4481 111.663 86.4481Z" fill="#ED7E94"/>
<path d="M107.116 77.5754C103.601 82.7294 105.519 87.5245 109.446 91.3356C116.992 92.1565 122.049 91.0692 122.049 91.0692L123.462 79.9295L127.107 78.1245L125.732 68.8931C118.681 70.4316 111.136 71.3613 107.116 77.5754Z" fill="#FF96A9"/>
<path d="M107.116 77.5756C111.136 71.3615 118.676 70.4319 125.732 68.8933L124.901 63.3316C67.4376 55.1114 89.3463 85.0076 89.3463 85.0076C96.7289 89.0361 103.786 90.7215 109.441 91.3358C105.519 87.5247 103.601 82.735 107.116 77.5756Z" fill="#ED7E94"/>
<path d="M101.433 70.9806C101.433 70.9806 133.935 69.3877 150.298 56.1984C150.298 56.1984 105.98 52.5613 81.2087 63.5922C81.2087 63.5922 78.0253 77.1241 89.3898 85.0888L95.0721 74.4003C95.0721 74.4003 90.297 72.3507 95.3003 68.034C100.298 63.701 101.433 70.9806 101.433 70.9806Z" fill="#322666"/>
<path d="M115.547 223.446C115.547 223.446 144.892 382.849 181.713 458.582C181.713 458.582 91.0304 363.06 85.2395 259.345L115.547 223.446Z" fill="#3F327A"/>
<path d="M110.946 228.899L85.2341 259.35C90.2645 349.43 159.337 433.334 177.405 453.83C124.38 351.137 113.059 268.266 110.946 228.899Z" fill="#322666"/>
<path d="M68.6327 221.782C68.6327 221.782 58.4796 228.605 62.5702 244.073C62.5702 244.073 35.1258 341.231 33.0833 458.587C33.0833 458.587 99.217 323.486 101.26 253.891C101.26 253.891 116.199 251.004 115.547 223.451C114.895 195.893 68.6327 221.782 68.6327 221.782Z" fill="#3F327A"/>
<path d="M68.6327 221.783C68.6327 221.783 58.4796 228.606 62.5702 244.073C62.5702 244.073 35.1258 341.232 33.0833 458.588C33.0833 458.588 33.6319 457.468 34.6206 455.396C47.5823 371.449 74.3259 246.802 74.3259 246.802C70.1647 238.055 71.8487 227.149 74.3259 218.891C70.8491 220.538 68.6327 221.783 68.6327 221.783Z" fill="#322666"/>
<path d="M69.4204 217.02C69.0456 220.01 68.6327 221.777 68.6327 221.777C68.6327 221.777 96.7072 237.701 115.547 223.446C115.547 223.446 115.628 222.25 115.802 220.255C101.26 226.659 83.6315 223.87 69.4204 217.02Z" fill="#322666"/>
<path d="M113.477 198.128C87.57 183.117 79.3888 151.726 68.4752 125.798C86.201 141.722 98.4727 162.191 114.84 179.931C116.981 182.432 119.436 184.4 122.109 185.944C122.446 185.047 122.799 184.199 123.174 183.416C128.932 171.287 136.771 147.942 121.055 117.002L50.4505 120.944C50.4505 120.944 43.1766 149.752 59.2401 171.591C71.2891 187.978 70.5449 208.033 69.4204 217.026C83.6315 223.876 101.26 226.659 115.807 220.26C116.193 215.933 117.035 207.821 118.518 199.846C116.726 199.569 115.031 199.03 113.477 198.128Z" fill="#8B77E8"/>
<path d="M114.846 179.932C98.4836 162.192 86.2119 141.717 68.4806 125.799C79.3888 151.726 87.57 183.117 113.482 198.128C115.031 199.031 116.731 199.569 118.518 199.846C119.453 194.834 120.631 189.881 122.114 185.945C119.442 184.395 116.986 182.427 114.846 179.932Z" fill="#654CC9"/>
<path d="M179.844 107.145C174.776 107.145 168.04 107.477 164.221 103.557C161.999 106.368 176.514 109.119 176.514 109.119C176.514 109.119 171.364 123.069 178.03 126.103L174.754 131.839C177.128 129.762 179.507 127.669 182.12 125.798C176.205 121.699 174.39 112.604 179.844 107.145Z" fill="#ED7E94"/>
<path d="M194.387 120.791C195.75 120.334 196.207 118.519 196.207 117.605C195.897 112.935 194.093 107.841 195.615 103.774C193.621 104.862 191.502 106.123 189.237 107.596C186.939 109.091 185.684 108.097 184.19 106.471C184.598 107.352 184.842 108.319 184.842 109.412C190.753 109.418 197.114 114.876 194.387 120.791Z" fill="#ED7E94"/>
<path d="M219.224 99.4795C216.584 97.3375 209.147 96.3969 195.615 103.774C194.099 107.841 195.897 112.935 196.207 117.605C196.207 118.513 195.75 120.335 194.387 120.791C197.114 114.876 190.753 109.418 184.842 109.418C184.842 108.325 184.592 107.357 184.19 106.476C181.74 103.818 178.644 99.4632 169.24 101.535C166.28 102.187 164.759 102.872 164.221 103.557C168.045 107.477 174.781 107.145 179.844 107.145C174.39 112.604 176.21 121.705 182.115 125.798C179.502 127.663 177.123 129.762 174.749 131.838L174.743 131.849C177.9 135.541 182.599 137.786 187.607 138.526C188.324 134.307 188.764 130.05 188.933 125.804C195.294 127.168 203.481 125.804 205.751 119.437C207.115 115.344 203.932 109.429 205.295 107.156C207.778 102.459 213.264 100.61 219.224 99.4795Z" fill="#FF96A9"/>
<path d="M219.224 99.4795C213.264 100.61 207.778 102.459 205.3 107.145C203.937 109.418 207.12 115.333 205.757 119.427C203.486 125.793 195.305 127.158 188.938 125.793C188.764 130.039 188.324 134.296 187.613 138.515C188.96 138.71 190.329 138.808 191.692 138.787C192.328 135.938 192.839 133.024 193.181 130.039C193.181 130.039 200.151 131.86 208.332 122.455C216.513 113.055 206.816 108.809 206.816 108.809C206.816 108.809 212.27 104.106 218.333 103.274C220.587 102.964 221.022 100.942 219.224 99.4795Z" fill="#ED7E94"/>
<path d="M50.4994 123.982C50.8525 131.42 53.1667 151.573 67.1551 173.663C68.285 172.494 69.4149 171.325 70.5449 170.156C60.8698 156.32 53.8946 140.624 50.4994 123.982Z" fill="#654CC9"/>
<path d="M182.115 143.538C178.312 141.951 174.515 139.7 172.098 136.481L156.208 164.312L121.055 117.002L99.6135 104.873L83.0231 103.28L50.4451 120.943C50.4451 120.943 50.4016 122.025 50.4994 123.983C53.8946 140.63 60.8644 156.325 70.5449 170.156C76.7541 163.752 83.0068 157.391 89.3844 151.155L80.7958 137.928L111.663 141.565C111.663 141.565 113.173 144.859 116.079 149.758C116.932 148.029 117.85 146.333 118.48 144.446C120.3 138.531 120.3 132.165 121.664 126.25C129.388 148.54 139.389 174.924 162.118 185.384C174.814 174.957 182.615 160.327 186.352 144.674C184.934 144.408 183.522 144.028 182.115 143.538Z" fill="#8B77E8"/>
<path d="M99.0866 126.097L96.5497 132.947L102.992 139.781L103.807 131.159L99.0866 126.097Z" fill="#E5649A"/>
<path d="M100.287 132.366C100.472 138.101 101.738 190.288 87.57 214.97L107.344 235.88L107.355 235.858C115.715 201.656 109.299 165.877 100.287 132.366Z" fill="#DB4A87"/>
<path d="M100.265 131.844C100.265 131.844 100.271 132.029 100.282 132.366C109.294 165.877 115.71 201.656 107.349 235.858L119.382 213.818C119.387 213.818 124.103 176.104 100.265 131.844Z" fill="#E5649A"/>
<path d="M190.014 145.142C190.638 143.071 191.198 140.95 191.687 138.786C190.318 138.808 188.954 138.716 187.607 138.515C187.254 140.581 186.836 142.636 186.352 144.674C187.575 144.914 188.797 145.071 190.014 145.142Z" fill="#654CC9"/>
<path d="M174.743 131.844L172.098 136.476C174.515 139.694 178.312 141.95 182.115 143.533C183.517 144.022 184.934 144.402 186.347 144.674C186.836 142.635 187.254 140.58 187.602 138.515C182.599 137.781 177.9 135.535 174.743 131.844Z" fill="#654CC9"/>
<path d="M33.2788 449.986L18.0247 465.155H105.904L33.2788 449.986Z" fill="#322666"/>
<path d="M174.07 449.986L161.054 465.155H247.113L174.07 449.986Z" fill="#322666"/>
<path d="M88.8737 86.5566L83.0231 103.28L98.0219 124.206L99.6136 104.873C99.7657 100.817 101.178 97.4136 102.987 94.6681C97.5655 93.2057 92.5515 90.5635 88.8737 86.5566Z" fill="#FF96A9"/>
<path d="M113.178 83.9468L121.968 83.3379C121.968 83.3379 121.511 87.8884 117.573 88.3396C113.629 88.7963 113.178 83.9468 113.178 83.9468Z" fill="white"/>
<path d="M79.2367 108.51L94.3876 138.792L99.0866 126.097L109.539 137.302L102.993 110.782L106.811 131.844L98.0273 124.205L94.3876 133.225L79.2367 108.51Z" fill="#654CC9"/>
<path d="M196.663 203.129C196.956 202.635 197.233 202.129 197.5 201.629C196.945 191.364 189.139 182.204 182.571 182.204C175.297 182.204 165.296 195.246 165.296 195.246L159.886 194.518C157.414 198.867 156.648 203.803 157.132 208.745C163.564 208.479 169.941 207.604 176.205 205.858C182.115 212.681 193.023 210.409 196.663 203.129Z" fill="#FF96A9"/>
<path d="M196.663 203.129C193.029 210.409 182.115 212.682 176.21 205.859C169.947 207.598 163.569 208.479 157.137 208.745C157.338 210.811 157.756 212.877 158.365 214.905C164.606 214.671 170.593 213.861 175.906 212.23C175.906 212.23 196.207 216.476 197.424 204.951C197.543 203.836 197.565 202.727 197.505 201.629C197.233 202.129 196.951 202.635 196.663 203.129Z" fill="#ED7E94"/>
<path d="M159.886 194.518L154.003 193.724C151.645 198.296 150.808 203.608 151.292 208.822C153.242 208.849 155.192 208.827 157.132 208.746C156.648 203.798 157.414 198.862 159.886 194.518Z" fill="#654CC9"/>
<path d="M151.292 208.822C151.487 210.904 151.884 212.97 152.487 214.96C154.459 214.992 156.425 214.976 158.359 214.9C157.751 212.872 157.333 210.806 157.132 208.74C155.187 208.822 153.242 208.844 151.292 208.822Z" fill="#654CC9"/>
<path d="M151.292 208.822C134.397 208.599 117.296 204.652 101.205 201.314C89.3247 192.718 78.9217 182.133 70.5449 170.162C69.415 171.331 68.2796 172.494 67.1551 173.668C73.7229 184.041 82.8656 194.844 95.5991 204.956C95.5991 204.956 125.254 214.552 152.487 214.965C151.884 212.964 151.482 210.899 151.292 208.822Z" fill="#654CC9"/>
<path d="M70.545 170.156C78.9217 182.133 89.3247 192.713 101.205 201.308C117.291 204.652 134.392 208.593 151.292 208.816C150.808 203.602 151.645 198.291 154.003 193.718L113.482 188.265L89.3899 151.149C83.0123 157.396 76.7542 163.752 70.545 170.156Z" fill="#8B77E8"/>
<path d="M155.801 211.785C155.801 212.546 155.181 213.166 154.421 213.166C153.66 213.166 153.041 212.546 153.041 211.785C153.041 211.024 153.655 210.404 154.421 210.404C155.187 210.409 155.801 211.024 155.801 211.785Z" fill="#8B77E8"/>
<path d="M190.014 142.016C190.014 142.685 189.476 143.223 188.808 143.223C188.14 143.223 187.602 142.685 187.602 142.016C187.602 141.347 188.14 140.809 188.808 140.809C189.476 140.809 190.014 141.347 190.014 142.016Z" fill="#8B77E8"/>
<path d="M169.257 210.474C167.54 207.615 168.686 204.179 171.544 202.461C177.15 200.357 183.397 201.477 188.715 204.244C179.926 197.66 165.813 193.468 162.113 201.031C158.593 208.218 173.266 222.016 186.037 221.206C179.16 220.592 172.82 217.314 169.257 210.474Z" fill="#ED7E94"/>
<path d="M188.715 204.244C183.403 201.482 177.15 200.357 171.544 202.461C168.686 204.179 167.54 207.609 169.257 210.474C172.82 217.308 179.16 220.587 186.037 221.206C187.33 221.125 188.607 220.896 189.84 220.489C199.841 217.21 196.212 209.86 188.715 204.244Z" fill="#FF96A9"/>
<path d="M191.66 190.848C192.284 190.641 192.714 190.255 193.018 189.761C192.062 184.313 187.922 177.164 184.494 180.323C183.571 185.313 186.657 192.098 191.66 190.848Z" fill="#FF96A9"/>
<path d="M191.66 190.848C186.657 192.099 183.571 185.314 184.494 180.323C184.12 180.665 183.756 181.133 183.408 181.736C182.283 183.666 183.272 193.681 190.497 195.149C193.023 195.66 193.588 193.017 193.018 189.766C192.714 190.256 192.284 190.636 191.66 190.848Z" fill="#ED7E94"/>
<path d="M212.879 121.167H211.032C210.646 121.167 210.336 120.857 210.336 120.471V108.043C210.336 107.657 210.646 107.347 211.032 107.347H212.879C213.264 107.347 213.574 107.657 213.574 108.043V120.471C213.574 120.857 213.264 121.167 212.879 121.167Z" fill="#C8C2ED"/>
<path d="M211.939 119.661C211.569 119.661 211.271 119.362 211.271 118.992V109.467C211.271 109.097 211.569 108.798 211.939 108.798C212.308 108.798 212.607 109.097 212.607 109.467V118.992C212.607 119.362 212.308 119.661 211.939 119.661Z" fill="#A397DB"/>
<path d="M214.313 97.7402H209.592C208.18 97.7402 207.033 98.8874 207.033 100.301V108.983C207.033 110.397 208.18 111.544 209.592 111.544H214.313C215.725 111.544 216.871 110.397 216.871 108.983V100.301C216.871 98.8874 215.725 97.7402 214.313 97.7402ZM214.813 101.274C214.128 101.274 213.579 100.72 213.579 100.04C213.579 99.3549 214.133 98.8058 214.813 98.8058C215.497 98.8058 216.046 99.3604 216.046 100.04C216.046 100.72 215.492 101.274 214.813 101.274Z" fill="#322666"/>
<path d="M211.939 105.928C213.79 105.928 215.291 105.278 215.291 104.476C215.291 103.675 213.79 103.025 211.939 103.025C210.088 103.025 208.587 103.675 208.587 104.476C208.587 105.278 210.088 105.928 211.939 105.928Z" fill="#3F327A"/>
<path d="M214.829 99.5615C214.487 99.5615 214.21 99.2843 214.21 98.9418V82.2023C214.21 81.8598 214.487 81.5825 214.829 81.5825C215.171 81.5825 215.448 81.8598 215.448 82.2023V98.9418C215.448 99.2843 215.171 99.5615 214.829 99.5615Z" fill="#C8C2ED"/>
<path d="M214.829 81.5879C214.747 81.5879 214.671 81.6042 214.601 81.6314C214.829 81.7238 214.992 81.9467 214.992 82.2077V98.9471C214.992 99.2081 214.829 99.431 214.601 99.5234C214.671 99.5506 214.747 99.5669 214.829 99.5669C215.171 99.5669 215.448 99.2896 215.448 98.9471V82.2077C215.448 81.8652 215.171 81.5879 214.829 81.5879Z" fill="#A397DB"/>
<path d="M520.335 465.155H475.002C467.288 465.155 461.03 458.898 461.03 451.172V396.517H534.302V451.172C534.307 458.892 528.054 465.155 520.335 465.155Z" fill="#322666"/>
<path d="M523.801 396.517V452.863C523.801 459.653 518.303 465.155 511.518 465.155H522.024C528.809 465.155 534.307 459.653 534.307 452.863V396.517H523.801Z" fill="#251959"/>
<path d="M839.308 465.155H793.975C786.261 465.155 780.003 458.898 780.003 451.172V396.517H853.274V451.172C853.28 458.892 847.022 465.155 839.308 465.155Z" fill="#322666"/>
<path d="M790.514 452.858V396.512H780.008V452.858C780.008 459.648 785.506 465.15 792.291 465.15H802.797C796.012 465.155 790.514 459.648 790.514 452.858Z" fill="#251959"/>
<path d="M478.723 210.812H498.844C500.338 210.812 501.626 211.856 501.93 213.318L508.139 242.872L497.671 252.718L493.434 227.693L475.235 228.275L478.723 210.812Z" fill="#FFA42F"/>
<path d="M838.498 210.812H819.767C817.464 210.812 815.481 212.427 815.009 214.677L809.087 242.872L819.556 252.718L823.793 227.693L841.991 228.275L838.498 210.812Z" fill="#FFA42F"/>
<path d="M809.082 242.867H508.139L535.757 89.0091C536.762 83.3985 542.282 79.2666 548.763 79.2666H768.459C774.94 79.2666 780.453 83.3985 781.464 89.0091L809.082 242.867Z" fill="#FFA42F"/>
<path d="M802.878 242.872H513.419L539.984 94.3643C540.951 88.9549 546.253 84.9644 552.489 84.9644H763.803C764.754 84.9644 765.683 85.0568 766.579 85.2362C770.159 85.9375 773.201 87.9817 774.928 90.7761C775.602 91.8635 776.08 93.0758 776.308 94.3589L780.421 117.34L802.878 242.872Z" fill="#F2F0FF"/>
<path d="M613.56 360.407H565.478C547.361 360.407 532.677 345.712 532.677 327.581V233.576C532.677 215.444 547.361 200.749 565.478 200.749H613.56C631.677 200.749 646.361 215.444 646.361 233.576V327.586C646.361 345.712 631.677 360.407 613.56 360.407Z" fill="#C8C2ED"/>
<path d="M613.288 194.535H565.521C556.286 194.535 548.806 187.043 548.806 177.806C548.806 168.564 556.292 161.078 565.521 161.078H613.288C622.523 161.078 630.004 168.569 630.004 177.806C630.004 187.043 622.518 194.535 613.288 194.535Z" fill="#C8C2ED"/>
<path d="M572.969 181.628H568.607V211.742H572.969V181.628Z" fill="#C8C2ED"/>
<path d="M610.17 181.628H605.808V211.742H610.17V181.628Z" fill="#C8C2ED"/>
<path d="M675.598 113.376H640.7C634.197 113.376 628.879 108.054 628.879 101.546C628.879 95.0383 634.197 89.7158 640.7 89.7158H675.598C682.1 89.7158 687.419 95.0383 687.419 101.546C687.419 108.054 682.095 113.376 675.598 113.376Z" fill="#C8C2ED"/>
<path d="M758.996 360.407H710.914C692.797 360.407 678.113 345.712 678.113 327.581V233.576C678.113 215.444 692.797 200.749 710.914 200.749H758.996C777.113 200.749 791.796 215.444 791.796 233.576V327.586C791.796 345.712 777.113 360.407 758.996 360.407Z" fill="#C8C2ED"/>
<path d="M758.724 194.535H710.957C701.722 194.535 694.242 187.043 694.242 177.806C694.242 168.564 701.727 161.078 710.957 161.078H758.724C767.959 161.078 775.439 168.569 775.439 177.806C775.439 187.043 767.959 194.535 758.724 194.535Z" fill="#C8C2ED"/>
<path d="M718.405 181.628H714.042V211.742H718.405V181.628Z" fill="#C8C2ED"/>
<path d="M755.611 181.628H751.249V211.742H755.611V181.628Z" fill="#C8C2ED"/>
<path d="M743.1 280.793C720.04 280.793 701.282 262.02 701.282 238.941C701.282 215.863 720.04 197.09 743.1 197.09C766.161 197.09 784.919 215.863 784.919 238.941C784.919 262.014 766.161 280.793 743.1 280.793ZM743.1 204.734C724.256 204.734 708.925 220.076 708.925 238.936C708.925 257.795 724.256 273.138 743.1 273.138C761.945 273.138 777.276 257.795 777.276 238.936C777.276 220.081 761.945 204.734 743.1 204.734Z" fill="#A397DB"/>
<path d="M743.101 251.01C749.761 251.01 755.16 245.607 755.16 238.941C755.16 232.275 749.761 226.872 743.101 226.872C736.44 226.872 731.041 232.275 731.041 238.941C731.041 245.607 736.44 251.01 743.101 251.01Z" fill="#A397DB"/>
<path d="M743.144 242.698L707.437 224.882L710.419 218.89L743.062 235.179L775.722 217.972L778.835 223.892L743.144 242.698Z" fill="#A397DB"/>
<path d="M861.418 359.847H454.924V297.064C454.924 287.382 462.768 279.531 472.443 279.531H843.898C853.573 279.531 861.418 287.382 861.418 297.064V359.847Z" fill="#FFA42F"/>
<path d="M856.637 405.243H457.097C446.748 405.243 438.355 396.844 438.355 386.487V378.604C438.355 368.247 446.748 359.847 457.097 359.847H856.637C866.986 359.847 875.379 368.247 875.379 378.604V386.487C875.379 396.849 866.986 405.243 856.637 405.243Z" fill="#FFCC46"/>
<path d="M516.793 339.275C545.409 339.275 568.607 328.287 568.607 314.734C568.607 301.18 545.409 290.193 516.793 290.193C488.177 290.193 464.979 301.18 464.979 314.734C464.979 328.287 488.177 339.275 516.793 339.275Z" fill="#FE9736"/>
<path d="M801.526 339.481C830.142 339.481 853.34 328.494 853.34 314.94C853.34 301.387 830.142 290.399 801.526 290.399C772.91 290.399 749.712 301.387 749.712 314.94C749.712 328.494 772.91 339.481 801.526 339.481Z" fill="#FE9736"/>
<path d="M858.897 397.599H454.831C445.732 397.599 438.355 390.216 438.355 381.11V388.759C438.355 397.866 445.732 405.249 454.831 405.249H858.897C867.996 405.249 875.373 397.866 875.373 388.759V381.11C875.379 390.211 868.002 397.599 858.897 397.599Z" fill="#FE9736"/>
<path d="M516.983 334.197C542.104 334.197 562.468 325.469 562.468 314.701C562.468 303.934 542.104 295.205 516.983 295.205C491.862 295.205 471.498 303.934 471.498 314.701C471.498 325.469 491.862 334.197 516.983 334.197Z" fill="#F2F0FF"/>
<path d="M525.344 333.718C500.224 333.718 479.858 324.987 479.858 314.223C479.858 304.964 494.917 297.211 515.109 295.221C490.859 295.645 471.503 304.203 471.503 314.701C471.503 325.471 491.869 334.197 516.989 334.197C520.509 334.197 523.937 334.023 527.223 333.702C526.598 333.713 525.974 333.718 525.344 333.718Z" fill="#A397DB"/>
<path d="M801.526 334.197C826.646 334.197 847.011 325.469 847.011 314.701C847.011 303.934 826.646 295.205 801.526 295.205C776.405 295.205 756.04 303.934 756.04 314.701C756.04 325.469 776.405 334.197 801.526 334.197Z" fill="#A397DB"/>
<path d="M798.418 334.154C821.823 334.154 840.796 325.444 840.796 314.701C840.796 303.958 821.823 295.249 798.418 295.249C775.014 295.249 756.04 303.958 756.04 314.701C756.04 325.444 775.014 334.154 798.418 334.154Z" fill="#F2F0FF"/>
<path d="M529.583 381.216C531.225 374.256 526.919 367.281 519.964 365.637C513.009 363.993 506.039 368.304 504.397 375.264C502.755 382.225 507.061 389.2 514.016 390.843C520.971 392.487 527.941 388.176 529.583 381.216Z" fill="#C8C2ED"/>
<path d="M522.475 389.689C515.326 389.689 509.535 383.893 509.535 376.739C509.535 371.737 512.371 367.399 516.521 365.24C509.59 365.485 504.043 371.182 504.043 378.179C504.043 385.334 509.834 391.13 516.983 391.13C519.129 391.13 521.155 390.602 522.937 389.678C522.785 389.683 522.633 389.689 522.475 389.689Z" fill="#A397DB"/>
<path d="M810.664 387.03C815.718 381.973 815.718 373.773 810.664 368.716C805.611 363.658 797.418 363.658 792.365 368.716C787.312 373.773 787.311 381.973 792.365 387.03C797.418 392.087 805.611 392.087 810.664 387.03Z" fill="#C8C2ED"/>
<path d="M801.526 364.92C800.624 364.92 799.749 365.012 798.896 365.186C804.785 366.398 809.207 371.618 809.207 377.87C809.207 384.122 804.78 389.336 798.896 390.553C799.744 390.727 800.624 390.82 801.526 390.82C808.675 390.82 814.466 385.024 814.466 377.87C814.466 370.721 808.675 364.92 801.526 364.92Z" fill="#A397DB"/>
<path d="M745.149 299.603L735.006 373.227L733.121 386.927C732.687 390.08 730.199 392.5 727.129 392.918C726.82 392.956 726.505 392.978 726.184 392.978H597.35C596.089 392.978 594.894 392.641 593.862 392.048C592.14 391.054 590.858 389.346 590.467 387.275L585.98 363.588L573.931 299.946C573.116 295.624 576.424 291.628 580.814 291.628H738.211C742.454 291.633 745.724 295.39 745.149 299.603Z" fill="#FE9736"/>
<path d="M476.164 220.88C479.983 212.274 477.12 203.195 479.505 194.11C479.576 193.86 479.652 193.605 479.728 193.349H457.39C453.435 193.349 450.225 196.557 450.225 200.52V236.233C450.225 238.8 451.572 241.039 453.593 242.306C463.452 238.017 471.867 230.911 476.164 220.88Z" fill="#FFCC46"/>
<path d="M480.863 193.349H479.728C479.646 193.605 479.57 193.86 479.505 194.11C477.115 203.195 479.983 212.274 476.164 220.88C471.867 230.911 463.458 238.011 453.598 242.306C454.701 242.997 455.999 243.404 457.395 243.404H480.869C484.823 243.404 488.034 240.197 488.034 236.234V200.52C488.029 196.557 484.818 193.349 480.863 193.349Z" fill="#FFA42F"/>
<path d="M834.881 195.546C834.593 194.969 834.207 194.42 833.745 193.898C830.453 195.127 828.106 198.286 828.106 202.004V234.739C828.106 239.523 831.98 243.399 836.76 243.399H857.256C860.657 243.399 863.591 241.431 865.003 238.577C860.391 237.544 855.898 235.891 851.59 233.309C838.221 225.181 841.09 208.452 834.881 195.546Z" fill="#FFA42F"/>
<path d="M865.91 202.01C865.91 197.225 862.037 193.349 857.256 193.349H836.76C835.695 193.349 834.685 193.55 833.745 193.898C834.207 194.415 834.592 194.969 834.88 195.546C841.09 208.452 838.221 225.181 851.596 233.309C855.904 235.896 860.396 237.544 865.008 238.577C865.584 237.419 865.91 236.119 865.91 234.738V202.01Z" fill="#FFCC46"/>
<path d="M502.033 326.325C508.448 326.325 513.648 321.121 513.648 314.701C513.648 308.282 508.448 303.078 502.033 303.078C495.619 303.078 490.419 308.282 490.419 314.701C490.419 321.121 495.619 326.325 502.033 326.325Z" fill="#C8C2ED"/>
<path d="M495.672 314.223C495.672 309.08 499.007 304.725 503.63 303.192C503.109 303.121 502.571 303.078 502.033 303.078C495.618 303.078 490.419 308.281 490.419 314.701C490.419 321.122 495.618 326.325 502.033 326.325C503.31 326.325 504.538 326.113 505.689 325.732C500.029 324.955 495.672 320.1 495.672 314.223Z" fill="#A397DB"/>
<path d="M530.988 326.325C537.402 326.325 542.602 321.121 542.602 314.701C542.602 308.282 537.402 303.078 530.988 303.078C524.573 303.078 519.373 308.282 519.373 314.701C519.373 321.121 524.573 326.325 530.988 326.325Z" fill="#A397DB"/>
<path d="M527.435 303.632C522.758 305.133 519.373 309.52 519.373 314.701C519.373 320.671 523.871 325.585 529.657 326.249C534.334 324.748 537.719 320.361 537.719 315.18C537.719 309.21 533.22 304.295 527.435 303.632Z" fill="#C8C2ED"/>
<path d="M787.048 326.325C793.463 326.325 798.663 321.121 798.663 314.701C798.663 308.282 793.463 303.078 787.048 303.078C780.634 303.078 775.434 308.282 775.434 314.701C775.434 321.121 780.634 326.325 787.048 326.325Z" fill="#C8C2ED"/>
<path d="M779.014 314.701C779.014 308.889 783.273 304.078 788.835 303.214C788.254 303.121 787.651 303.078 787.043 303.078C780.627 303.078 775.428 308.281 775.428 314.701C775.428 321.122 780.627 326.325 787.043 326.325C787.651 326.325 788.249 326.276 788.835 326.189C783.273 325.324 779.014 320.513 779.014 314.701Z" fill="#A397DB"/>
<path d="M816.003 326.325C822.417 326.325 827.617 321.121 827.617 314.701C827.617 308.282 822.417 303.078 816.003 303.078C809.588 303.078 804.388 308.282 804.388 314.701C804.388 321.121 809.588 326.325 816.003 326.325Z" fill="#C8C2ED"/>
<path d="M816.003 303.078C814.976 303.078 813.982 303.214 813.037 303.464C819.11 303.844 823.918 308.889 823.918 315.06C823.918 320.453 820.245 324.987 815.269 326.298C815.514 326.314 815.758 326.325 816.003 326.325C822.418 326.325 827.617 321.122 827.617 314.701C827.617 308.281 822.418 303.078 816.003 303.078Z" fill="#A397DB"/>
<path d="M845.718 279.537H471.503V272.986C471.503 256.355 484.976 242.872 501.593 242.872C604.33 224.779 709.018 224.849 815.628 242.872C832.246 242.872 845.718 256.355 845.718 272.986V279.537Z" fill="#FFCC46"/>
<path d="M832.235 273.143H485.318C484.481 273.143 483.808 272.469 483.808 271.632C483.808 270.795 484.481 270.121 485.318 270.121H832.235C833.071 270.121 833.745 270.795 833.745 271.632C833.745 272.464 833.071 273.143 832.235 273.143Z" fill="#FE9736"/>
<path d="M659.301 267.25C668.622 267.25 676.179 265.111 676.179 262.471C676.179 259.832 668.622 257.692 659.301 257.692C649.979 257.692 642.422 259.832 642.422 262.471C642.422 265.111 649.979 267.25 659.301 267.25Z" fill="#FE9736"/>
<path d="M593.862 291.634V392.049C592.14 391.054 590.858 389.347 590.467 387.275L585.98 363.588V291.634H593.862Z" fill="#FFA42F"/>
<path d="M607.976 291.633H600.093V392.978H607.976V291.633Z" fill="#FFA42F"/>
<path d="M622.089 291.633H614.206V392.978H622.089V291.633Z" fill="#FFA42F"/>
<path d="M636.208 291.633H628.325V392.978H636.208V291.633Z" fill="#FFA42F"/>
<path d="M650.321 291.633H642.438V392.978H650.321V291.633Z" fill="#FFA42F"/>
<path d="M664.434 291.633H656.552V392.978H664.434V291.633Z" fill="#FFA42F"/>
<path d="M678.548 291.633H670.665V392.978H678.548V291.633Z" fill="#FFA42F"/>
<path d="M692.666 291.633H684.784V392.978H692.666V291.633Z" fill="#FFA42F"/>
<path d="M706.78 291.633H698.897V392.978H706.78V291.633Z" fill="#FFA42F"/>
<path d="M720.893 291.633H713.011V392.978H720.893V291.633Z" fill="#FFA42F"/>
<path d="M735.006 291.633V373.227L733.121 386.927C732.687 390.08 730.199 392.5 727.129 392.918V291.633H735.006Z" fill="#FFA42F"/>
<path d="M839.802 17.0604H743.573L781.757 13.9724C781.757 13.9724 776.792 9.18268 789.015 9.65024C789.015 9.65024 787.488 4.13748 798.945 5.32811C798.945 5.32811 799.711 -0.179227 814.221 0.310071C828.731 0.79937 822.239 7.39403 822.239 7.39403C822.239 7.39403 837.515 2.87617 845.533 7.39403C853.546 11.9173 839.802 17.0604 839.802 17.0604Z" fill="#F2F0FF"/>
</svg>
